; Drill file
; Format: 2.4 (00.0000)
M48
INCH
T01C0.0315
T02C0.0394
T03C0.1181
%
G05
G90
T01
X000750Y002420
X002750Y002410
X002770Y005040
X000770Y005050
X000750Y009190
X002750Y009180
X002770Y011810
X000770Y011820
X005700Y009000
X005700Y008000
X005690Y007000
X005690Y006000
X005680Y005000
X005680Y004000
X005670Y003000
X005670Y002000
X011670Y002020
X011670Y003020
X011680Y004020
X011680Y005020
X011690Y006020
X011690Y007020
X011700Y008020
X011700Y009020
X012410Y010490
X010410Y010480
X013910Y008430
X016910Y008430
X016910Y003430
X013920Y003480
T02
X004530Y012870
X005310Y012870
X006100Y012870
X006890Y012900
X011630Y013030
X012420Y013060
X014780Y013030
X015570Y013060
T03
X000980Y001180
X000980Y012990
X017520Y012990
X017520Y001180
M30
