<?xml version="1.0" encoding="UTF-8"?>
<svg version="1.1" xmlns="http://www.w3.org/2000/svg" width="969" height="295">
<path d="M0 0 C319.77 0 639.54 0 969 0 C969 97.35 969 194.7 969 295 C649.23 295 329.46 295 0 295 C0 197.65 0 100.3 0 0 Z " fill="#E6E5E4" transform="translate(0,0)"/>
<path d="M0 0 C319.77 0 639.54 0 969 0 C969 97.35 969 194.7 969 295 C649.23 295 329.46 295 0 295 C0 197.65 0 100.3 0 0 Z M10 9 C10 94.8 10 180.6 10 269 C55.21 269 100.42 269 147 269 C147.33 261.74 147.66 254.48 148 247 C416.62 246.67 685.24 246.34 962 246 C962 167.79 962 89.58 962 9 C647.84 9 333.68 9 10 9 Z " fill="#E6E5E3" transform="translate(0,0)"/>
<path d="M0 0 C0.67104122 -0.00280463 1.34208244 -0.00560927 2.03345825 -0.00849889 C4.30878104 -0.01552402 6.58383778 -0.00815226 8.85915709 -0.00098395 C10.50321127 -0.00306799 12.14726454 -0.00602881 13.79131573 -0.00979269 C18.34680762 -0.01763831 22.90221565 -0.01289098 27.45770629 -0.00623678 C32.39941782 -0.00119283 37.34111583 -0.00767144 42.28282547 -0.01272345 C50.95627033 -0.01997111 59.62969032 -0.01971285 68.30313635 -0.01462913 C81.20046913 -0.00709007 94.09778079 -0.0109181 106.99511342 -0.01704574 C130.02455611 -0.02759921 153.05398784 -0.0266558 176.08343159 -0.02088792 C196.23637897 -0.01584703 216.38932231 -0.01453621 236.54227018 -0.0169332 C237.89037546 -0.01708816 239.23848073 -0.01724247 240.586586 -0.01739614 C246.00369115 -0.01801704 251.4207963 -0.01865438 256.83790145 -0.01931567 C271.98214279 -0.02114993 287.12638415 -0.02229095 302.27062559 -0.02288795 C302.96033109 -0.02291524 303.65003659 -0.02294253 304.36064226 -0.02297065 C326.34662345 -0.02378953 348.33260322 -0.02153371 370.31858397 -0.01718879 C371.03196524 -0.01704829 371.74534652 -0.01690779 372.48034542 -0.01676304 C384.0661199 -0.01447298 395.65189436 -0.01203413 407.23766881 -0.00958269 C453.19182186 0.00013042 499.14596326 -0.0003204 545.10011625 -0.01004386 C556.67996294 -0.01248612 568.25980963 -0.01490818 579.83965635 -0.01718879 C580.5526129 -0.01732968 581.26556944 -0.01747058 582.00013073 -0.01761575 C603.96262558 -0.02192635 625.92511947 -0.023757 647.88761473 -0.02288795 C648.92141892 -0.02284719 648.92141892 -0.02284719 649.97610805 -0.02280562 C665.10335819 -0.02218073 680.23060822 -0.0209136 695.35785825 -0.01906694 C700.77019986 -0.01840862 706.18254148 -0.01778246 711.59488309 -0.01716552 C712.94140529 -0.01701074 714.28792749 -0.01685328 715.63444969 -0.01669312 C735.78348668 -0.01430324 755.93251912 -0.01634405 776.08155554 -0.02139052 C799.64525972 -0.02729203 823.2089501 -0.02652615 846.77265275 -0.01533082 C859.60083834 -0.00943778 872.42899617 -0.00910424 885.25718107 -0.01662317 C893.81057327 -0.0210854 902.36394305 -0.01835794 910.91733191 -0.00961363 C915.80097861 -0.00482554 920.68456987 -0.00329206 925.56821495 -0.0104256 C930.00187466 -0.01683626 934.43542918 -0.01421463 938.86908106 -0.00406428 C940.47179083 -0.00203265 942.0745091 -0.0034269 943.6772122 -0.00847615 C945.83768568 -0.01480515 947.99778482 -0.00902968 950.15824032 0 C951.35915561 0.00013552 952.5600709 0.00027104 953.79737756 0.00041066 C956.57912016 0.25069833 956.57912016 0.25069833 958.57912016 2.25069833 C958.82981849 4.08056521 958.82981849 4.08056521 958.83080244 6.3486979 C958.83862568 7.64341901 958.83862568 7.64341901 958.84660697 8.9642961 C958.8399148 10.39510756 958.8399148 10.39510756 958.83308744 11.8548243 C958.83620743 12.86375946 958.83932741 13.87269461 958.84254193 14.91220355 C958.85056033 18.31480699 958.84418335 21.71723398 958.83790922 25.11983895 C958.84061738 27.55035658 958.84417732 29.98087339 958.84852934 32.41138864 C958.85672519 38.34077264 958.85549399 44.27011031 958.84970406 50.19949305 C958.84519406 55.01684342 958.84457178 59.83417959 958.84675169 64.65153146 C958.84705816 65.33619726 958.84736462 66.02086306 958.84768037 66.72627631 C958.8483198 68.11700078 958.84896823 69.50772525 958.84962556 70.89844972 C958.8553337 83.95061467 958.84876338 97.00275156 958.83802482 110.05491191 C958.82908887 121.26325451 958.83064078 132.47155569 958.83986235 143.67989755 C958.85055644 156.68417934 958.85478433 169.68843651 958.84863782 182.69272208 C958.8480007 184.07843645 958.84737196 185.46415082 958.84675169 186.8498652 C958.84644314 187.53172903 958.84613459 188.21359287 958.84581669 188.91611925 C958.84408716 193.72974409 958.84701038 198.54335336 958.8517108 203.35697579 C958.85789367 209.83131059 958.85351506 216.30558539 958.84192228 222.77991319 C958.83926761 225.16243317 958.84005444 227.54495971 958.84444761 229.92747712 C958.84987275 233.16726617 958.84310596 236.4067998 958.83308744 239.64657235 C958.83754889 240.60044666 958.84201033 241.55432096 958.84660697 242.53710055 C958.84139148 243.40024796 958.83617598 244.26339537 958.83080244 245.15269876 C958.83047774 245.90118254 958.83015303 246.64966633 958.82981849 247.42083144 C958.57912016 249.25069833 958.57912016 249.25069833 956.57912016 251.25069833 C954.19103434 251.50004066 954.19103434 251.50004066 951.11774337 251.49909532 C949.9478806 251.50358991 948.77801783 251.50808449 947.57270467 251.51271528 C946.27362586 251.50746125 944.97454704 251.50220723 943.6361022 251.49679399 C942.2472571 251.49827194 940.85841269 251.5006277 939.4695704 251.50378698 C935.62268022 251.50995874 931.77589479 251.50354708 927.92901237 251.49523071 C923.75547879 251.48839103 919.58195635 251.4930984 915.40842068 251.49638569 C908.08376816 251.50054349 900.75914804 251.4972281 893.43449926 251.48910928 C882.54291257 251.47707018 871.65134644 251.47643478 860.75975431 251.47819326 C842.44095494 251.48082504 824.12216995 251.47412317 805.80337477 251.46215844 C787.65738049 251.45033688 769.51139221 251.44262908 751.36539412 251.44045281 C750.23843166 251.44031533 749.11146921 251.44017786 747.95035638 251.44003621 C742.22741779 251.43935957 736.50447919 251.43875679 730.78154059 251.43818246 C690.21341198 251.43397819 649.64529122 251.42049386 609.07716703 251.40157723 C569.65822215 251.38321764 530.2392794 251.36904587 490.8203311 251.36056161 C489.60592669 251.36029856 488.39152229 251.3600355 487.14031775 251.35976448 C474.94511287 251.35712751 462.74990797 251.35457587 450.55470306 251.35208676 C425.71019102 251.34701391 400.86567911 251.34137141 376.02116728 251.33538461 C374.87877936 251.33511003 373.73639145 251.33483545 372.55938572 251.33455255 C296.23262727 251.31614163 219.90587317 251.28445012 143.57912016 251.25069833 C143.58959379 251.87637704 143.60006742 252.50205575 143.61085844 253.14669442 C143.65235207 255.97298843 143.67842489 258.79921844 143.70412016 261.62569833 C143.72087797 262.61054208 143.73763578 263.59538583 143.75490141 264.61007333 C143.76134672 265.55108895 143.76779203 266.49210458 143.77443266 267.46163583 C143.78490629 268.33094735 143.79537992 269.20025887 143.80617094 270.09591317 C143.57912016 272.25069833 143.57912016 272.25069833 141.57912016 274.25069833 C139.02724028 274.50238061 139.02724028 274.50238061 135.73341703 274.50466561 C134.48826323 274.51030526 133.24310942 274.51594491 131.96022367 274.52175546 C130.57277193 274.5178665 129.18532075 274.51377014 127.79787016 274.50948739 C126.34270887 274.51219621 124.88754895 274.51575653 123.43239164 274.52010751 C119.47379033 274.5292468 115.51529294 274.52568095 111.55668974 274.51934934 C107.42028342 274.51429729 103.28388619 274.51897857 99.14747953 274.52212167 C92.2001976 274.52576364 85.25295815 274.52095617 78.30568266 274.51144052 C70.26564712 274.50055551 62.225713 274.50408093 54.18567991 274.51509333 C47.29138904 274.52415963 40.39712875 274.5254547 33.50283384 274.52021599 C29.38135442 274.51709266 25.25992272 274.51669684 21.13844633 274.52328897 C17.26430322 274.52905229 13.39029129 274.52508426 9.5161624 274.51350045 C8.09150234 274.51084841 6.66683131 274.51162819 5.24217558 274.51602578 C3.30306207 274.52146102 1.36392452 274.51344834 -0.57517672 274.50466561 C-1.66213839 274.50391156 -2.74910006 274.50315751 -3.86899996 274.50238061 C-6.42087984 274.25069833 -6.42087984 274.25069833 -8.42087984 272.25069833 C-8.67157817 270.27335477 -8.67157817 270.27335477 -8.67256212 267.79349923 C-8.67777762 266.85023373 -8.68299311 265.90696822 -8.68836665 264.93511891 C-8.68390521 263.8917528 -8.67944376 262.84838668 -8.67484713 261.77340341 C-8.6795271 260.11911812 -8.6795271 260.11911812 -8.68430161 258.43141294 C-8.69232189 254.71096519 -8.68594229 250.99067873 -8.6796689 247.27022958 C-8.68237698 244.61311 -8.68586412 241.95600179 -8.69028902 239.29888558 C-8.6992005 232.81604289 -8.69725323 226.33324641 -8.69146374 219.85040188 C-8.68695413 214.5834904 -8.6863313 209.3165919 -8.68851137 204.04967904 C-8.68881784 203.30117993 -8.6891243 202.55268082 -8.68944006 201.78149992 C-8.69007948 200.26112445 -8.69072791 198.74074898 -8.69138524 197.22037351 C-8.69709367 182.95070165 -8.69052261 168.68105545 -8.67978451 154.4113878 C-8.67084853 142.15696543 -8.67240043 129.90258095 -8.68162203 117.64815927 C-8.69231561 103.43091067 -8.6965443 89.21368459 -8.6903975 74.99643254 C-8.68976038 73.48152757 -8.68913164 71.96662259 -8.68851137 70.45171762 C-8.68820282 69.70627924 -8.68789427 68.96084087 -8.68757637 68.19281346 C-8.68584669 62.92984585 -8.6887704 57.66689249 -8.69347048 52.40392709 C-8.6990692 45.99354353 -8.69758421 39.58320897 -8.68690899 33.17283106 C-8.6816386 29.89970639 -8.68068818 26.62668083 -8.68620729 23.35355401 C-8.6916311 19.81161747 -8.68486722 16.26991469 -8.67484713 12.72799325 C-8.67930857 11.68462713 -8.68377001 10.64126101 -8.68836665 9.56627774 C-8.68315116 8.62301224 -8.67793566 7.67974673 -8.67256212 6.70789742 C-8.67223742 5.8895451 -8.67191271 5.07119277 -8.67157817 4.22804189 C-8.03655175 -0.78062892 -4.07396302 0.00045973 0 0 Z M-0.42087984 7.25069833 C-0.42087984 93.05069833 -0.42087984 178.85069833 -0.42087984 267.25069833 C44.78912016 267.25069833 89.99912016 267.25069833 136.57912016 267.25069833 C136.90912016 259.99069833 137.23912016 252.73069833 137.57912016 245.25069833 C406.19912016 244.92069833 674.81912016 244.59069833 951.57912016 244.25069833 C951.57912016 166.04069833 951.57912016 87.83069833 951.57912016 7.25069833 C637.41912016 7.25069833 323.25912016 7.25069833 -0.42087984 7.25069833 Z " fill="#F7820F" transform="translate(10.42087984085083,1.7493016719818115)"/>
<path d="M0 0 C1.80204415 0.00046794 1.80204415 0.00046794 3.64049324 0.00094534 C4.64742776 -0.00288892 4.64742776 -0.00288892 5.6747044 -0.00680064 C7.95087485 -0.01298373 10.22677391 -0.0047661 12.50293561 0.00324667 C14.14759473 0.00176886 15.79225325 -0.00058675 17.43691 -0.00374632 C21.99407194 -0.00992032 26.55114552 -0.00350457 31.10830092 0.00480994 C36.0517871 0.01164778 40.99526384 0.00694261 45.93875178 0.00365496 C54.61525961 -0.00050341 63.29174009 0.00281354 71.96824475 0.01093138 C84.87001891 0.02296903 97.77177571 0.02360601 110.67355446 0.0218474 C132.37319016 0.01921544 154.07281371 0.02591817 175.77244588 0.03788222 C197.26774422 0.04971967 218.76303755 0.0574309 240.25833913 0.05958784 C240.92544334 0.05965667 241.59254755 0.05972549 242.27986705 0.0597964 C248.37267048 0.06042278 254.46547392 0.06099817 260.55827736 0.06151235 C275.70555972 0.06279128 290.85284195 0.06471002 306.00012418 0.06706274 C306.68996361 0.06716938 307.37980304 0.06727601 308.09054669 0.06738588 C341.66242609 0.07263126 375.23430219 0.08524734 408.80617925 0.09846342 C420.45907229 0.10304667 432.11196534 0.10759736 443.76485845 0.11201323 C444.84890147 0.11242408 444.84890147 0.11242408 445.95484435 0.11284322 C479.53949043 0.12552704 513.12413707 0.13298116 546.70878491 0.13908282 C548.88862885 0.13947895 551.06847279 0.13987733 553.24831673 0.14027618 C567.6940316 0.1429157 582.13974649 0.145465 596.58546139 0.1479539 C625.32983 0.15290714 654.0741985 0.15839051 682.81856694 0.16423799 C684.18750603 0.16451647 685.55644513 0.16479458 686.92538423 0.16507232 C775.96520195 0.1831416 865.00501592 0.21394679 960.21731206 0.24934233 C956.6055487 2.65718457 954.9864414 2.5007928 950.68916848 2.50415135 C950.01868399 2.50740195 949.3481995 2.51065255 948.6573973 2.51400165 C946.39001174 2.52252388 944.12288424 2.51670205 941.85549279 2.51105536 C940.21478358 2.51424032 938.57407586 2.51830173 936.93337076 2.52316464 C932.39184973 2.53405357 927.85040417 2.53238972 923.30887463 2.52881392 C918.38058752 2.52711535 913.4523218 2.5369528 908.52404346 2.54536796 C899.87579235 2.55852685 891.22756084 2.56422793 882.57930013 2.56512869 C869.71954034 2.56650148 856.85980976 2.57926537 844.00005973 2.59441643 C822.37072153 2.61957435 800.74138579 2.63541499 779.11203595 2.64599837 C757.68733651 2.65651186 736.26264639 2.67111475 714.83795377 2.69127882 C714.17296239 2.69190281 713.50797101 2.69252679 712.82282837 2.69316968 C706.74929335 2.69887087 700.67575838 2.70462299 694.60222346 2.71043621 C679.50306033 2.72488759 664.40389665 2.73870017 649.30473252 2.75207938 C648.61709578 2.7526892 647.92945903 2.75329901 647.22098481 2.75392731 C613.75890787 2.78354686 580.29682658 2.80580699 546.8347437 2.82746733 C535.22042481 2.83498948 523.60610594 2.84254414 511.99178716 2.85023344 C511.271481 2.85071029 510.55117484 2.85118714 509.80904122 2.85167844 C476.33341663 2.87388413 442.85779692 2.9013126 409.38217741 2.93009116 C407.20932439 2.93195904 405.03647138 2.93382466 402.86361836 2.93568983 C388.46419322 2.94805383 374.06476817 2.96050791 359.66534316 2.97302231 C331.01325229 2.99792278 302.36116098 3.0222939 273.70906934 3.04630145 C272.34453478 3.04744479 270.98000021 3.04858851 269.61546564 3.0497326 C227.5794953 3.08497534 185.54352366 3.11782805 143.50754949 3.14817656 C141.74590698 3.14944981 141.74590698 3.14944981 139.94867574 3.15074878 C92.37155555 3.18509923 44.79443358 3.21690024 -2.78268794 3.24934233 C-2.45268794 92.34934233 -2.12268794 181.44934233 -1.78268794 273.24934233 C46.72731206 273.24934233 95.23731206 273.24934233 145.21731206 273.24934233 C145.21731206 273.57934233 145.21731206 273.90934233 145.21731206 274.24934233 C125.95506083 274.29601233 106.69282103 274.33130659 87.43052503 274.35296667 C78.48720177 274.36329003 69.54391359 274.37737055 60.60061284 274.40022124 C52.8078638 274.42012275 45.01514016 274.43305105 37.22236641 274.43751932 C33.09413523 274.44013221 28.96597671 274.44629549 24.83776876 274.46080244 C20.95546567 274.47433527 17.07326549 274.47857374 13.19094106 274.47555769 C11.76304969 274.47610979 10.33515502 274.4801128 8.90728398 274.48775328 C6.96370552 274.49764675 5.02007236 274.49413294 3.07647344 274.48985136 C1.44213448 274.49261674 1.44213448 274.49261674 -0.22522143 274.49543799 C-2.78268794 274.24934233 -2.78268794 274.24934233 -4.78268794 272.24934233 C-5.03338627 270.27199877 -5.03338627 270.27199877 -5.03437022 267.79214323 C-5.03958572 266.84887773 -5.04480121 265.90561222 -5.05017475 264.93376292 C-5.04571331 263.8903968 -5.04125186 262.84703068 -5.03665522 261.77204741 C-5.0413352 260.11776212 -5.0413352 260.11776212 -5.04610971 258.43005694 C-5.05412999 254.70960919 -5.04775039 250.98932273 -5.041477 247.26887358 C-5.04418508 244.611754 -5.04767222 241.95464579 -5.05209712 239.29752959 C-5.0610086 232.81468689 -5.05906133 226.33189041 -5.05327184 219.84904588 C-5.04876223 214.5821344 -5.0481394 209.3152359 -5.05031947 204.04832304 C-5.05062594 203.29982393 -5.0509324 202.55132482 -5.05124816 201.78014392 C-5.05188758 200.25976845 -5.05253601 198.73939298 -5.05319334 197.21901751 C-5.05890177 182.94934565 -5.05233071 168.67969945 -5.04159261 154.4100318 C-5.03265663 142.15560943 -5.03420852 129.90122495 -5.04343013 117.64680327 C-5.05412371 103.42955468 -5.0583524 89.2123286 -5.0522056 74.99507654 C-5.05156848 73.48017157 -5.05093973 71.9652666 -5.05031947 70.45036162 C-5.05001092 69.70492324 -5.04970237 68.95948487 -5.04938447 68.19145746 C-5.04765479 62.92848986 -5.0505785 57.66553649 -5.05527858 52.40257109 C-5.0608773 45.99218753 -5.0593923 39.58185298 -5.04871709 33.17147506 C-5.0434467 29.8983504 -5.04249628 26.62532483 -5.04801539 23.35219801 C-5.0534392 19.81026147 -5.04667532 16.26855869 -5.03665522 12.72663725 C-5.04111667 11.68327113 -5.04557811 10.63990502 -5.05017475 9.56492174 C-5.04495926 8.62165624 -5.03974376 7.67839073 -5.03437022 6.70654143 C-5.03404552 5.8881891 -5.03372081 5.06983677 -5.03338627 4.22668589 C-4.60296257 0.83178681 -3.25495909 0.29166011 0 0 Z " fill="#F29436" transform="translate(6.7826879397034645,1.750657670199871)"/>
<path d="M0 0 C319.77 0 639.54 0 969 0 C968.67 1.32 968.34 2.64 968 4 C967.67 3.67 967.34 3.34 967 3 C964.90263103 2.90123483 962.8018611 2.87476927 960.70216799 2.87465084 C960.03228062 2.87324852 959.36239325 2.8718462 958.67220627 2.87040139 C956.39485439 2.86688156 954.11756863 2.87057848 951.84021759 2.87415886 C950.19702726 2.87311711 948.55383716 2.87163691 946.91064757 2.86975449 C942.35291754 2.86582781 937.79520842 2.86820735 933.2374787 2.87153245 C928.2950749 2.87405257 923.35267449 2.87081586 918.41027117 2.86828911 C909.73408915 2.86466391 901.05791334 2.86479524 892.38173103 2.86733627 C879.48036213 2.87110457 866.5789985 2.86919244 853.67762963 2.86612797 C830.64146876 2.86085026 807.60531062 2.86132332 784.56914948 2.86420688 C764.41036226 2.86672699 744.25157604 2.86738289 724.0927887 2.86618423 C722.7444674 2.86610676 721.3961461 2.8660296 720.0478248 2.86595276 C714.6298971 2.86564232 709.2119694 2.86532365 703.7940417 2.864993 C688.64735481 2.86407585 673.50066793 2.86350536 658.35398102 2.86320686 C657.66415524 2.86319322 656.97432945 2.86317957 656.26359986 2.86316551 C634.27268489 2.86275605 612.28177027 2.86388408 590.29085541 2.86605644 C589.577279 2.86612669 588.86370259 2.86619694 588.12850265 2.86626932 C576.53944587 2.86741436 564.95038911 2.86863378 553.36133234 2.86985949 C507.39371929 2.87471607 461.42610914 2.87449066 415.45849609 2.86962891 C403.87537893 2.86840778 392.29226176 2.86719676 380.70914459 2.86605644 C379.99599364 2.86598599 379.2828427 2.86591555 378.54808111 2.86584296 C356.58072702 2.86368777 334.61337317 2.86277232 312.64601898 2.86320686 C311.95669553 2.86322045 311.26737208 2.86323403 310.55716004 2.86324803 C295.42748753 2.86356046 280.29781505 2.86419402 265.16814257 2.86511737 C259.7549694 2.86544653 254.34179623 2.86575961 248.92862306 2.86606808 C247.58188508 2.86614547 246.2351471 2.8662242 244.88840913 2.86630427 C224.73335653 2.86749938 204.57830507 2.86647849 184.42325262 2.86395558 C160.85299355 2.86100525 137.28273792 2.86138677 113.71247923 2.86698543 C100.87965203 2.86993268 88.04683178 2.87009766 75.21400475 2.86633925 C66.65876122 2.86410901 58.1035233 2.86547025 49.5482806 2.86984402 C44.66274925 2.87223931 39.77723176 2.87300228 34.8917008 2.86943804 C30.4575046 2.8662358 26.0233347 2.86753895 21.58914045 2.8726187 C19.98510203 2.87363562 18.38106148 2.87293458 16.77702471 2.87041276 C14.61726095 2.8672551 12.45759123 2.87012968 10.29783201 2.87465084 C9.096537 2.8747186 7.89524199 2.87478635 6.65754411 2.87485617 C4.07810027 2.69754531 4.07810027 2.69754531 3 4 C2.90245914 5.44203079 2.87444546 6.88882537 2.87415886 8.33415127 C2.87155111 9.27542572 2.86894336 10.21670018 2.86625659 11.18649811 C2.86960268 12.75591654 2.86960268 12.75591654 2.87301636 14.35704041 C2.87145637 15.45904284 2.86989638 16.56104527 2.86828911 17.69644171 C2.86427388 21.41995553 2.86747078 25.14342918 2.87060547 28.86694336 C2.86925165 31.52391175 2.86750825 34.1808773 2.86529541 36.83784485 C2.86083688 43.32415566 2.86181459 49.81045494 2.86470805 56.29676621 C2.86696195 61.56655912 2.86727466 66.83634879 2.86618423 72.10614204 C2.866031 72.85477664 2.86587777 73.60341124 2.86571989 74.37473174 C2.86540018 75.89534874 2.86507597 77.41596575 2.8647473 78.93658275 C2.86189222 93.21291923 2.86517988 107.48924929 2.87054767 121.76558471 C2.87501482 134.02626216 2.87424056 146.28693014 2.86962891 158.54760742 C2.86428207 172.76960502 2.86216787 186.99159699 2.86524117 201.21359545 C2.86555973 202.7290777 2.8658741 204.24455994 2.86618423 205.76004219 C2.86633851 206.50577555 2.86649279 207.25150891 2.86665174 208.01984025 C2.86751663 213.28529686 2.86605458 218.55074992 2.86370468 223.81620598 C2.86090524 230.23025989 2.86164798 236.64430157 2.86698543 243.05835407 C2.86962062 246.33347281 2.87009579 249.60856679 2.86733627 252.88368607 C2.8646244 256.42780342 2.86800642 259.97186237 2.87301636 263.51597595 C2.87078564 264.56002419 2.86855491 265.60407243 2.86625659 266.67975849 C2.86886434 267.62364069 2.87147209 268.5675229 2.87415886 269.54000759 C2.87432121 270.35890199 2.87448356 271.17779639 2.87465084 272.02150577 C2.87580016 274.07640444 2.87580016 274.07640444 4 276 C2.68 276 1.36 276 0 276 C0 184.92 0 93.84 0 0 Z " fill="#F0E3D6" transform="translate(0,0)"/>
<path d="M0 0 C-3.75 2 -3.75 2 -6 2 C-5.67 91.1 -5.34 180.2 -5 272 C43.51 272 92.02 272 142 272 C142 272.33 142 272.66 142 273 C122.73774877 273.04667 103.47550897 273.08196426 84.21321297 273.10362434 C75.26988971 273.11394771 66.32660153 273.12802822 57.38330078 273.15087891 C49.59055174 273.17078042 41.7978281 273.18370872 34.00505435 273.18817699 C29.87682317 273.19078988 25.74866465 273.19695316 21.6204567 273.21146011 C17.73815361 273.22499294 13.85595343 273.22923141 9.973629 273.22621536 C8.54573763 273.22676746 7.11784296 273.23077047 5.68997192 273.23841095 C3.74639346 273.24830442 1.8027603 273.24479061 -0.14083862 273.24050903 C-1.77517758 273.24327441 -1.77517758 273.24327441 -3.44253349 273.24609566 C-6 273 -6 273 -8 271 C-8.24839699 269.02035511 -8.24839699 269.02035511 -8.24609566 266.53721428 C-8.25007775 265.59271538 -8.25405985 264.64821647 -8.25816262 263.67509639 C-8.24942409 262.10800086 -8.24942409 262.10800086 -8.24050903 260.50924683 C-8.24221788 259.40497884 -8.24392673 258.30071085 -8.24568737 257.1629802 C-8.24899926 253.43785316 -8.23795061 249.71290359 -8.22705078 245.98779297 C-8.22648703 243.32742912 -8.22671431 240.66707636 -8.22793579 238.00671387 C-8.22898605 232.26633723 -8.22269479 226.52600595 -8.21146011 220.78564072 C-8.19522709 212.48597583 -8.18999937 204.18633295 -8.18748413 195.88665392 C-8.18310357 182.42198209 -8.16978469 168.95733446 -8.15087891 155.49267578 C-8.13252944 142.41064577 -8.11836837 129.32862231 -8.10986328 116.24658203 C-8.10933783 115.44061867 -8.10881239 114.63465531 -8.10827102 113.80426882 C-8.105661 109.76111089 -8.10313357 105.71795292 -8.10064721 101.67479491 C-8.07990347 68.1165124 -8.04466813 34.55825916 -8 1 C-5.07175348 0.02391783 -3.04386724 -0.08226668 0 0 Z " fill="#F09031" transform="translate(10,3)"/>
<path d="M0 0 C4.75560692 2.4729156 7.56372619 5.22115522 10 10 C10.61454266 14.30179863 10.31986327 16.38396703 8.3125 20.25 C5.43357872 23.67358206 3.39639683 25.55321415 -1.07421875 26.38671875 C-5.72544632 26.7420757 -8.39475789 26.1590412 -12 23.125 C-15.14820873 20.10796663 -16.17137232 18.11753043 -16.3125 13.75 C-16.24513385 9.09425068 -15.18638926 6.52179866 -12 3 C-7.94891762 0.35798975 -4.8162435 -0.70236884 0 0 Z " fill="#86827D" transform="translate(441,17)"/>
<path d="M0 0 C4.2670344 2.30419857 7.52069849 4.80425898 10 9 C10.61617063 13.85234374 10.53237687 15.95496392 8.3125 20.3125 C4.76842345 24.43129166 2.04274898 26.1485803 -3.375 26.5625 C-8.00398271 26.42316607 -10.37880357 24.70737165 -13.6875 21.60546875 C-16.25802833 18.46116178 -16.34261303 15.00766563 -16.27734375 11.0625 C-15.8083752 7.57495927 -14.29403799 5.5958851 -12 3 C-7.94891762 0.35798975 -4.8162435 -0.70236884 0 0 Z " fill="#E4D7CA" transform="translate(656,216)"/>
<path d="M0 0 C3.91726235 2.10929511 6.66753531 4.21562645 9 8 C9.83356677 13.03894868 9.79319591 17.56049632 7.3125 22.0625 C3.21566218 25.49498574 -0.5267255 26.56353462 -5.93359375 26.4609375 C-9.79806565 25.59891919 -12.42056654 22.88597483 -15 20 C-16.73704155 16.5259169 -16.46041616 12.79843331 -16 9 C-12.44295878 1.88591755 -7.97117847 -0.97891665 0 0 Z " fill="#988F85" transform="translate(34,66)"/>
<path d="M0 0 C3.62342508 1.6470114 6.16816086 3.4327343 8 7 C8.42194635 9.855363 8.27988888 12.06116675 8 15 C6.5 17 6.5 17 5 18 C4.67 17.34 4.34 16.68 4 16 C2.35857037 14.9590934 0.69287785 13.95495674 -1 13 C-0.42647107 9.12867972 1.48704352 6.91827204 4 4 C3.0925 4.845625 2.185 5.69125 1.25 6.5625 C-1.67521228 8.99097812 -1.67521228 8.99097812 -4.25 9.0625 C-6.47065113 7.71424753 -7.07479124 6.39012264 -8 4 C-8.66 4 -9.32 4 -10 4 C-7.525 6.97 -7.525 6.97 -5 10 C-6.15173355 12.46800047 -7.04783565 14.04783565 -9 16 C-9.69748583 17.31747324 -10.36959957 18.64914193 -11 20 C-14.29007328 16.18210748 -14.69642538 13.42421691 -14.54296875 8.484375 C-13.73583615 4.79130785 -12.02583101 3.15112292 -9.00390625 0.99609375 C-5.80388961 -0.5945578 -3.48773085 -0.58128847 0 0 Z " fill="#E8DED3" transform="translate(656,218)"/>
<path d="M0 0 C0.103125 0.639375 0.20625 1.27875 0.3125 1.9375 C0.539375 2.618125 0.76625 3.29875 1 4 C1.99 4.33 2.98 4.66 4 5 C4.25 10.625 4.25 10.625 2 14 C4.97 11.525 4.97 11.525 8 9 C10.95409701 10.37154504 13.44008376 11.98863724 16 14 C15.484375 13.2575 14.96875 12.515 14.4375 11.75 C13 9 13 9 13.125 6.9375 C14.15886879 4.64821911 15.32657123 2.87424023 17 1 C17.66 1 18.32 1 19 1 C20.59561887 4.19123774 20.3799142 7.52745091 20 11 C18.36312815 14.58552881 17.31027417 15.79315055 14 18 C9.11483856 18.71207438 5.1899265 18.72852643 0.9375 16.125 C-1.93731418 12.971978 -2.15710547 11.18228793 -2.1875 7 C-2.20167969 6.113125 -2.21585938 5.22625 -2.23046875 4.3125 C-2 2 -2 2 0 0 Z " fill="#E5DDD6" transform="translate(22,72)"/>
<path d="M0 0 C0.70125 -0.02578125 1.4025 -0.0515625 2.125 -0.078125 C2.74375 0.03015625 3.3625 0.1384375 4 0.25 C4.66 1.24 5.32 2.23 6 3.25 C5.34 3.25 4.68 3.25 4 3.25 C3.87625 3.86875 3.7525 4.4875 3.625 5.125 C3 7.25 3 7.25 1 9.25 C-1.26274788 8.89644564 -2.95088852 8.27455574 -5 7.25 C-4.01 8.24 -3.02 9.23 -2 10.25 C-3.37154504 13.20409701 -4.98863724 15.69008376 -7 18.25 C-4.03 15.775 -4.03 15.775 -1 13.25 C2.875 15 2.875 15 4 17.25 C2.88625 17.37375 2.88625 17.37375 1.75 17.5 C-1.51221354 18.3896946 -2.80954878 19.73503749 -5 22.25 C-9.875 18.5 -9.875 18.5 -11 16.25 C-11.64507919 11.04328939 -11.9173523 7.43290165 -8.625 3.1875 C-5.47554223 0.86290022 -3.84224273 0.08475535 0 0 Z " fill="#E6DED5" transform="translate(438,18.75)"/>
<path d="M0 0 C4.2670344 2.30419857 7.52069849 4.80425898 10 9 C10.61617063 13.85234374 10.53237687 15.95496392 8.3125 20.3125 C4.76842345 24.43129166 2.04274898 26.1485803 -3.375 26.5625 C-8.00398271 26.42316607 -10.37880357 24.70737165 -13.6875 21.60546875 C-16.25802833 18.46116178 -16.34261303 15.00766563 -16.27734375 11.0625 C-15.8083752 7.57495927 -14.29403799 5.5958851 -12 3 C-7.94891762 0.35798975 -4.8162435 -0.70236884 0 0 Z M-12.671875 6.01953125 C-14.79039703 9.17862145 -14.77004787 11.94220749 -14.49609375 15.66015625 C-13.61421016 19.81959143 -11.48307591 21.83472607 -8.25 24.375 C-4.70861808 25.3587172 -1.46067987 25.08489567 2 24 C6.120882 20.58054473 7.84257891 18.57421093 8.375 13.25 C8.34478584 9.93248484 7.77284903 8.14883378 5.6875 5.5625 C2.5827627 2.60216909 0.94610563 2.12736037 -3.25 1.5625 C-7.58384533 2.06811529 -9.54880924 3.05824593 -12.671875 6.01953125 Z " fill="#3D3D3D" transform="translate(656,216)"/>
<path d="M0 0 C0.66 0 1.32 0 2 0 C3.625 2 3.625 2 5 4 C8.32812571 3.42618522 9.69842455 2.40619252 12 0 C12.66 0 13.32 0 14 0 C12.84826645 2.46800047 11.95216435 4.04783565 10 6 C10.0950739 8.0480428 10.0950739 8.0480428 11 10 C11.99 10.66 12.98 11.32 14 12 C14 12.66 14 13.32 14 14 C11.33333333 12.66666667 8.66666667 11.33333333 6 10 C5.071875 10.99 5.071875 10.99 4.125 12 C2 14 2 14 0 14 C1.33333333 11.33333333 2.66666667 8.66666667 4 6 C3.34 5.566875 2.68 5.13375 2 4.6875 C1.34 4.130625 0.68 3.57375 0 3 C0 2.01 0 1.02 0 0 Z " fill="#DE8E3F" transform="translate(24,72)"/>
<path d="M0 0 C0.66 0 1.32 0 2 0 C3.625 2 3.625 2 5 4 C8.32812571 3.42618522 9.69842455 2.40619252 12 0 C12.66 0 13.32 0 14 0 C12.84826645 2.46800047 11.95216435 4.04783565 10 6 C10.33693943 9.36939433 11.88819408 11.42910583 14 14 C11.33333333 12.66666667 8.66666667 11.33333333 6 10 C5.071875 10.99 5.071875 10.99 4.125 12 C2 14 2 14 0 14 C1.33333333 11.33333333 2.66666667 8.66666667 4 6 C3.34 5.38125 2.68 4.7625 2 4.125 C0 2 0 2 0 0 Z " fill="#DD8D3B" transform="translate(646,222)"/>
<path d="M0 0 C0.66 0 1.32 0 2 0 C0.84826645 2.46800047 -0.04783565 4.04783565 -2 6 C-1.66306057 9.36939433 -0.11180592 11.42910583 2 14 C-0.66666667 12.66666667 -3.33333333 11.33333333 -6 10 C-6.928125 10.99 -6.928125 10.99 -7.875 12 C-10 14 -10 14 -12 14 C-10.66666667 11.33333333 -9.33333333 8.66666667 -8 6 C-9.32 4.35 -10.64 2.7 -12 1 C-11.13375 1.4640625 -11.13375 1.4640625 -10.25 1.9375 C-7.24217147 3.41571361 -7.24217147 3.41571361 -4 4 C-1.85410577 2.10413616 -1.85410577 2.10413616 0 0 Z " fill="#DB8B3B" transform="translate(443,23)"/>
<path d="M0 0 C0.103125 0.639375 0.20625 1.27875 0.3125 1.9375 C0.539375 2.618125 0.76625 3.29875 1 4 C1.99 4.33 2.98 4.66 4 5 C4 6.98 4 8.96 4 11 C3.01 11.33 2.02 11.66 1 12 C1 12.66 1 13.32 1 14 C0.34 14 -0.32 14 -1 14 C-2.23887548 11.52224905 -2.16741669 9.76346293 -2.1875 7 C-2.20167969 6.113125 -2.21585938 5.22625 -2.23046875 4.3125 C-2 2 -2 2 0 0 Z " fill="#E6E2DE" transform="translate(22,72)"/>
<path d="M0 0 C0.66 0 1.32 0 2 0 C3.58512383 3.17024765 3.42372144 6.54667028 3 10 C1.5 12 1.5 12 0 13 C-4 8.375 -4 8.375 -4 5 C-3.01 4.34 -2.02 3.68 -1 3 C-0.67 2.01 -0.34 1.02 0 0 Z " fill="#E3E1E0" transform="translate(661,223)"/>
<path d="M0 0 C0 0.99 0 1.98 0 3 C-3.85756507 5.15305957 -6.55129785 6.39253254 -11 6 C-11 2 -11 2 -10 0.1875 C-6.68395989 -1.78139881 -3.71140052 -0.66926895 0 0 Z " fill="#DBD6D1" transform="translate(446,36)"/>
<path d="M0 0 C0.33 0.66 0.66 1.32 1 2 C0.32453125 2.09796875 -0.3509375 2.1959375 -1.046875 2.296875 C-6.57232283 3.2189412 -6.57232283 3.2189412 -11.5625 5.625 C-13.6440826 9.06413647 -13.73346185 12.00192777 -14 16 C-14.33 16 -14.66 16 -15 16 C-16.00505983 11.81225071 -16.33236484 9.69131887 -14.4375 5.75 C-10.18738481 0.95499825 -6.34997192 -0.45356942 0 0 Z " fill="#4B4B4B" transform="translate(656,216)"/>
<path d="M0 0 C1.65 0.33 3.3 0.66 5 1 C4.1875 3.4375 4.1875 3.4375 3 6 C2.01 6.33 1.02 6.66 0 7 C0.33 8.65 0.66 10.3 1 12 C0.01 11.34 -0.98 10.68 -2 10 C-1.42647107 6.12867972 0.48704352 3.91827204 3 1 C2.01 1.33 1.02 1.66 0 2 C0 1.34 0 0.68 0 0 Z " fill="#F5D9BC" transform="translate(657,221)"/>
<path d="M0 0 C-1.44253657 3.36591866 -3.33264727 5.51047079 -6 8 C-6 7.34 -6 6.68 -6 6 C-6.66 5.67 -7.32 5.34 -8 5 C-2.25 0 -2.25 0 0 0 Z " fill="#E0984F" transform="translate(660,222)"/>
<path d="M0 0 C-1.44253657 3.36591866 -3.33264727 5.51047079 -6 8 C-6 7.34 -6 6.68 -6 6 C-6.66 5.67 -7.32 5.34 -8 5 C-2.25 0 -2.25 0 0 0 Z " fill="#E09850" transform="translate(38,72)"/>
<path d="M0 0 C-1.44253657 3.36591866 -3.33264727 5.51047079 -6 8 C-6 7.34 -6 6.68 -6 6 C-6.66 5.67 -7.32 5.34 -8 5 C-2.25 0 -2.25 0 0 0 Z " fill="#E09950" transform="translate(445,23)"/>
<path d="M0 0 C3.875 1.75 3.875 1.75 5 4 C2 4 -1 4 -4 4 C-2.68 2.68 -1.36 1.36 0 0 Z " fill="#F8D5B0" transform="translate(437,32)"/>
<path d="M0 0 C2.64 0.33 5.28 0.66 8 1 C7.01 2.485 7.01 2.485 6 4 C4.125 3.6875 4.125 3.6875 2 3 C1.34 2.01 0.68 1.02 0 0 Z " fill="#F7D6B5" transform="translate(433,24)"/>
</svg>
