; Drill file
; Format: 2.4 (00.0000)
M48
INCH
T01C0.0315
T02C0.0394
T03C0.063
T04C0.0787
T05C0.0866
%
G05
G90
T01
X021240Y001100
X021240Y001790
X021240Y002480
X021240Y003170
X026540Y005430
X026380Y006380
X027720Y006340
X027720Y004530
X028780Y-000630
X030590Y-000630
T02
X001670Y001200
X002670Y001200
X003670Y001200
X004670Y001200
X005670Y001200
X006670Y001200
X007670Y001200
X008670Y001190
X011260Y001530
X012260Y001520
X013260Y001510
X014260Y001500
X015260Y001490
X016260Y001490
X014290Y003620
X013110Y006020
X013310Y007510
X014310Y007500
X015310Y007490
X016310Y007480
X017440Y004370
X012310Y007520
X011310Y007530
X008630Y007190
X007630Y007200
X006630Y007200
X005630Y007200
X004630Y007200
X003630Y007200
X002630Y007200
X001630Y007200
X002680Y003780
X002680Y002830
T03
X023750Y004440
X030660Y004430
X030670Y006790
T04
X027320Y005440
T05
X010420Y000670
X017580Y007300
X031140Y005670
M30
