; Drill file
; Format: 2.4 (00.0000)
M48
INCH
T01C0.0315
T02C0.0394
T03C0.063
T04C0.1496
%
G05
G90
T01
X011990Y001060
X011990Y001750
X011990Y002440
X011990Y003130
X025760Y003090
X025760Y002090
X025760Y004090
X025760Y005090
X025760Y006090
X025760Y007090
T02
X017640Y001170
X017630Y002170
X017620Y003170
X017610Y004170
X017600Y005170
X017590Y006170
X023590Y006220
X023600Y005220
X023610Y004220
X023620Y003220
X023630Y002220
X023640Y001220
T03
X002570Y004390
X002560Y006750
X009480Y004400
T04
X005600Y009000
X029780Y001080
M30
