; Drill file
; Format: 2.4 (00.0000)
M48
INCH
T01C0.0315
T02C0.0394
T03C0.063
T04C0.0787
T05C0.0866
%
G05
G90
T01
X001380Y000590
X003150Y000590
X004230Y005510
X005410Y006400
X005610Y007380
X004230Y007380
X010730Y004670
X010730Y003980
X010730Y003290
X010730Y002600
T02
X014530Y005870
X015710Y002980
X016710Y002990
X017710Y003000
X018710Y003010
X019710Y003020
X020710Y003020
X023300Y002690
X024300Y002690
X025300Y002690
X026300Y002690
X027300Y002690
X028300Y002700
X029300Y002700
X030300Y002700
X029290Y004330
X029290Y005280
X029340Y008700
X030340Y008700
X028340Y008700
X027340Y008690
X026340Y008690
X025340Y008690
X024340Y008690
X023340Y008690
X020660Y009020
X019660Y009020
X018660Y009010
X017660Y009000
X016660Y008990
X015660Y008980
X018860Y007520
X017680Y005120
T03
X001310Y005930
X001300Y008290
X008220Y005940
T04
X004630Y006400
T05
X012720Y003030
X014390Y008790
X021550Y002160
M30
