%FSLAX34Y34*%
%MOMM*%
%LNCOPPER_TOP*%
G71*
G01*
%ADD10C,1.200*%
%ADD11C,2.200*%
%ADD12C,2.000*%
%ADD13C,2.000*%
%ADD14C,1.000*%
%ADD15C,0.800*%
%ADD16C,2.800*%
%ADD17C,1.600*%
%ADD18C,2.000*%
%ADD19C,1.800*%
%LPD*%
G54D10*
X266500Y118500D02*
X278500Y118500D01*
G54D10*
X266500Y101000D02*
X278500Y101000D01*
G54D10*
X266500Y83500D02*
X278500Y83500D01*
G54D10*
X266500Y66000D02*
X278500Y66000D01*
G36*
X387991Y86625D02*
X409991Y86817D01*
X410183Y64818D01*
X388183Y64626D01*
X387991Y86625D01*
G37*
X424486Y75943D02*
G54D11*
D03*
X449885Y76165D02*
G54D11*
D03*
X475284Y76387D02*
G54D11*
D03*
X500683Y76608D02*
G54D11*
D03*
X526082Y76830D02*
G54D11*
D03*
X524752Y229224D02*
G54D11*
D03*
X499353Y229002D02*
G54D11*
D03*
X473954Y228781D02*
G54D11*
D03*
X448555Y228559D02*
G54D11*
D03*
X423156Y228338D02*
G54D11*
D03*
X397757Y228116D02*
G54D11*
D03*
X770691Y220902D02*
G54D12*
D03*
X745291Y220880D02*
G54D12*
D03*
X719891Y220858D02*
G54D12*
D03*
X669091Y220813D02*
G54D12*
D03*
X643692Y220791D02*
G54D12*
D03*
X618291Y220769D02*
G54D12*
D03*
X592892Y220747D02*
G54D12*
D03*
X694492Y220836D02*
G54D12*
D03*
X769494Y68507D02*
G54D12*
D03*
X744094Y68485D02*
G54D12*
D03*
X718695Y68462D02*
G54D12*
D03*
X667895Y68418D02*
G54D12*
D03*
X642494Y68396D02*
G54D12*
D03*
X617094Y68374D02*
G54D12*
D03*
X591694Y68352D02*
G54D12*
D03*
X693295Y68440D02*
G54D12*
D03*
G54D13*
X734000Y110000D02*
X754000Y110000D01*
G54D13*
X734000Y134000D02*
X754000Y134000D01*
G54D14*
X744094Y68485D02*
X744000Y110000D01*
X449000Y110000D01*
X449000Y200000D01*
X475000Y209000D01*
X473954Y228781D01*
G54D14*
X769494Y68507D02*
X769228Y134507D01*
X479000Y135000D01*
X479000Y191000D01*
X479000Y191000D02*
G54D12*
D03*
G54D15*
X448555Y228559D02*
X430000Y203000D01*
X430000Y149000D01*
X369000Y149000D01*
X449000Y130000D02*
G54D12*
D03*
X369000Y149000D02*
G54D12*
D03*
X117500Y162500D02*
G54D16*
D03*
G54D13*
X127500Y162500D02*
X147500Y162500D01*
G54D17*
X134500Y187500D02*
X150500Y187500D01*
X35000Y15000D02*
G54D18*
D03*
X80000Y15000D02*
G54D18*
D03*
X107500Y187500D02*
G54D19*
D03*
X107500Y140000D02*
G54D19*
D03*
M02*
