%FSLAX34Y34*%
%MOMM*%
%LNSILK_TOP*%
G71*
G01*
%ADD10C,0.111*%
%ADD11C,0.600*%
%ADD12C,0.222*%
%ADD13C,0.167*%
%LPD*%
G54D10*
X286450Y104665D02*
X295325Y105146D01*
X295506Y101817D01*
X295023Y100456D01*
X293950Y99730D01*
X292840Y99670D01*
X291695Y100276D01*
X291068Y101577D01*
X290585Y100216D01*
X289512Y99490D01*
X288402Y99430D01*
X287257Y100035D01*
X286630Y101337D01*
X286450Y104665D01*
G54D10*
X290888Y104906D02*
X291068Y101577D01*
G54D10*
X290753Y97110D02*
X291042Y91784D01*
G54D10*
X293117Y94567D02*
X288679Y94327D01*
G54D10*
X284986Y122877D02*
X293862Y123358D01*
X294042Y120029D01*
X293559Y118668D01*
X292486Y117942D01*
X291376Y117882D01*
X290231Y118487D01*
X289604Y119789D01*
X289121Y118427D01*
X288048Y117702D01*
X286938Y117641D01*
X285793Y118247D01*
X285166Y119548D01*
X284986Y122877D01*
G54D10*
X289424Y123117D02*
X289604Y119789D01*
G54D10*
X289290Y115322D02*
X289578Y109996D01*
G54D10*
X286271Y88037D02*
X295327Y85189D01*
X286632Y81380D01*
G54D10*
X289672Y86886D02*
X289888Y82892D01*
G54D10*
X290647Y79150D02*
X290936Y73824D01*
G54D10*
X286160Y69762D02*
X295216Y66915D01*
X286520Y63106D01*
G54D10*
X289561Y68611D02*
X289777Y64617D01*
G54D10*
X290536Y60875D02*
X290824Y55549D01*
G54D10*
X292899Y58333D02*
X288461Y58092D01*
G54D10*
X588684Y46112D02*
X588017Y45001D01*
X586684Y44445D01*
X585350Y44445D01*
X584017Y45001D01*
X583350Y46112D01*
X583350Y51667D01*
X584017Y52778D01*
X585350Y53334D01*
X586684Y53334D01*
X588017Y52778D01*
X588684Y51667D01*
G54D10*
X591127Y44445D02*
X594461Y53334D01*
X597794Y44445D01*
G54D10*
X592461Y47778D02*
X596461Y47778D01*
G54D10*
X600238Y44445D02*
X600238Y53334D01*
X605572Y44445D01*
X605572Y53334D01*
G54D10*
X608015Y42778D02*
X609349Y42223D01*
X610282Y42223D01*
X611615Y42778D01*
X612015Y43890D01*
X612015Y49445D01*
G54D10*
X612015Y48001D02*
X611349Y49112D01*
X610015Y49445D01*
X608682Y49112D01*
X608015Y48001D01*
X608015Y45778D01*
X608682Y44667D01*
X610015Y44445D01*
X611349Y44667D01*
X612015Y45778D01*
G54D10*
X618459Y49445D02*
X618459Y44445D01*
G54D10*
X618459Y45556D02*
X617793Y44667D01*
X616459Y44445D01*
X615126Y44667D01*
X614459Y45556D01*
X614459Y49445D01*
G54D10*
X620903Y44445D02*
X620903Y49445D01*
G54D10*
X620903Y48334D02*
X622237Y49445D01*
X623570Y49445D01*
G54D10*
X630014Y49445D02*
X630014Y44445D01*
G54D10*
X630014Y45556D02*
X629348Y44667D01*
X628014Y44445D01*
X626681Y44667D01*
X626014Y45556D01*
X626014Y49445D01*
G54D10*
X632458Y48334D02*
X637792Y48334D01*
G54D10*
X640235Y44445D02*
X640235Y53334D01*
X644902Y53334D01*
G54D10*
X640235Y48890D02*
X644902Y48890D01*
G54D10*
X651346Y45778D02*
X651346Y48001D01*
X650680Y49112D01*
X649346Y49445D01*
X648013Y49112D01*
X647346Y48001D01*
X647346Y45778D01*
X648013Y44667D01*
X649346Y44445D01*
X650680Y44667D01*
X651346Y45778D01*
G54D10*
X653790Y44445D02*
X653790Y49445D01*
G54D10*
X653790Y48334D02*
X655124Y49445D01*
X656457Y49445D01*
G54D10*
X658901Y44445D02*
X658901Y49445D01*
G54D10*
X658901Y48556D02*
X660235Y49445D01*
X661568Y49112D01*
X662235Y48334D01*
X662235Y44445D01*
G54D10*
X662235Y48556D02*
X663568Y49445D01*
X664901Y49112D01*
X665568Y48334D01*
X665568Y44445D01*
G54D10*
X668012Y45001D02*
X669346Y44445D01*
X670679Y44445D01*
X672012Y45001D01*
X672012Y46112D01*
X671346Y46667D01*
X668679Y47223D01*
X668012Y47778D01*
X668012Y48890D01*
X669346Y49445D01*
X670679Y49445D01*
X672012Y48890D01*
G54D10*
X674456Y44445D02*
X674456Y49445D01*
G54D10*
X674456Y51112D02*
X674456Y51112D01*
G54D10*
X676900Y42778D02*
X678234Y42223D01*
X679167Y42223D01*
X680500Y42778D01*
X680900Y43890D01*
X680900Y49445D01*
G54D10*
X680900Y48001D02*
X680234Y49112D01*
X678900Y49445D01*
X677567Y49112D01*
X676900Y48001D01*
X676900Y45778D01*
X677567Y44667D01*
X678900Y44445D01*
X680234Y44667D01*
X680900Y45778D01*
G54D10*
X683344Y44445D02*
X683344Y49445D01*
G54D10*
X683344Y48334D02*
X684011Y49112D01*
X685344Y49445D01*
X686678Y49112D01*
X687344Y48334D01*
X687344Y44445D01*
G54D10*
X689788Y48890D02*
X691122Y49445D01*
X692722Y49445D01*
X693788Y48334D01*
X693788Y44445D01*
G54D10*
X693788Y46112D02*
X693122Y47223D01*
X691788Y47445D01*
X690455Y47223D01*
X689788Y46112D01*
X690055Y45001D01*
X691122Y44445D01*
X691788Y44445D01*
X692055Y44445D01*
X693122Y45001D01*
X693788Y46112D01*
G54D10*
X696232Y44445D02*
X696232Y53334D01*
G54D10*
X521772Y205068D02*
X521772Y213957D01*
X525106Y213957D01*
X526439Y213401D01*
X527106Y212290D01*
X527106Y211179D01*
X526439Y210068D01*
X525106Y209512D01*
X526439Y208957D01*
X527106Y207846D01*
X527106Y206735D01*
X526439Y205624D01*
X525106Y205068D01*
X521772Y205068D01*
G54D10*
X521772Y209512D02*
X525106Y209512D01*
G54D10*
X529549Y208957D02*
X534883Y208957D01*
G54D10*
X532216Y211179D02*
X532216Y206735D01*
G54D10*
X498353Y205558D02*
X498353Y214447D01*
X501686Y214447D01*
X503020Y213891D01*
X503686Y212780D01*
X503686Y211669D01*
X503020Y210558D01*
X501686Y210002D01*
X503020Y209447D01*
X503686Y208336D01*
X503686Y207225D01*
X503020Y206114D01*
X501686Y205558D01*
X498353Y205558D01*
G54D10*
X498353Y210002D02*
X501686Y210002D01*
G54D10*
X506130Y209447D02*
X511464Y209447D01*
G54D10*
X421838Y207353D02*
X425171Y216242D01*
X428504Y207353D01*
G54D10*
X423171Y210686D02*
X427171Y210686D01*
G54D10*
X430949Y211242D02*
X436282Y211242D01*
G54D10*
X394197Y207557D02*
X397530Y216446D01*
X400863Y207557D01*
G54D10*
X395530Y210890D02*
X399530Y210890D01*
G54D10*
X403308Y211446D02*
X408641Y211446D01*
G54D10*
X405974Y213668D02*
X405974Y209223D01*
G54D10*
X450841Y240890D02*
X450841Y246223D01*
G54D10*
X448619Y243557D02*
X453063Y243557D01*
G54D10*
X474730Y242779D02*
X480063Y242779D01*
G54D11*
X385723Y232011D02*
X536717Y233329D01*
X538117Y72835D01*
X387123Y71517D01*
X385723Y232011D01*
G54D10*
X397116Y88182D02*
X404338Y88182D01*
X405449Y88849D01*
X406005Y90182D01*
X406005Y91516D01*
X405449Y92849D01*
X404338Y93516D01*
X397116Y93516D01*
G54D10*
X397116Y95960D02*
X406005Y95960D01*
X406005Y100626D01*
G54D10*
X406005Y105737D02*
X397116Y105737D01*
G54D10*
X397116Y103070D02*
X397116Y108404D01*
G54D10*
X424790Y92743D02*
X430346Y92743D01*
X431457Y92076D01*
X432012Y90743D01*
X432012Y89409D01*
X431457Y88076D01*
X430346Y87409D01*
X424790Y87409D01*
X423679Y88076D01*
X423123Y89409D01*
X423123Y90743D01*
X423679Y92076D01*
X424790Y92743D01*
G54D10*
X423123Y95186D02*
X430346Y95186D01*
X431457Y95853D01*
X432012Y97186D01*
X432012Y98520D01*
X431457Y99853D01*
X430346Y100520D01*
X423123Y100520D01*
G54D10*
X432012Y105630D02*
X423123Y105630D01*
G54D10*
X423123Y102963D02*
X423123Y108297D01*
G54D10*
X432012Y114740D02*
X423123Y114740D01*
X428679Y110740D01*
X429790Y110740D01*
X429790Y116074D01*
G54D10*
X449789Y92961D02*
X455345Y92961D01*
X456456Y92294D01*
X457011Y90961D01*
X457011Y89628D01*
X456456Y88294D01*
X455345Y87628D01*
X449789Y87628D01*
X448678Y88294D01*
X448123Y89628D01*
X448123Y90961D01*
X448678Y92294D01*
X449789Y92961D01*
G54D10*
X448123Y95405D02*
X455345Y95405D01*
X456456Y96071D01*
X457011Y97405D01*
X457011Y98738D01*
X456456Y100071D01*
X455345Y100738D01*
X448123Y100738D01*
G54D10*
X457011Y105848D02*
X448123Y105848D01*
G54D10*
X448123Y103182D02*
X448123Y108515D01*
G54D10*
X449789Y110959D02*
X448678Y111625D01*
X448123Y112959D01*
X448123Y114292D01*
X448678Y115625D01*
X449789Y116292D01*
X450900Y116292D01*
X452011Y115625D01*
X452567Y114292D01*
X453123Y115625D01*
X454234Y116292D01*
X455345Y116292D01*
X456456Y115625D01*
X457011Y114292D01*
X457011Y112959D01*
X456456Y111625D01*
X455345Y110959D01*
G54D10*
X474788Y93179D02*
X480344Y93179D01*
X481455Y92512D01*
X482010Y91179D01*
X482010Y89846D01*
X481455Y88512D01*
X480344Y87846D01*
X474788Y87846D01*
X473677Y88512D01*
X473122Y89846D01*
X473122Y91179D01*
X473677Y92512D01*
X474788Y93179D01*
G54D10*
X473122Y95623D02*
X480344Y95623D01*
X481455Y96289D01*
X482010Y97623D01*
X482010Y98956D01*
X481455Y100289D01*
X480344Y100956D01*
X473122Y100956D01*
G54D10*
X482010Y106066D02*
X473122Y106066D01*
G54D10*
X473122Y103400D02*
X473122Y108733D01*
G54D10*
X482010Y116510D02*
X482010Y111177D01*
X481455Y111177D01*
X480344Y111843D01*
X477010Y115843D01*
X475899Y116510D01*
X474788Y116510D01*
X473677Y115843D01*
X473122Y114510D01*
X473122Y113177D01*
X473677Y111843D01*
X474788Y111177D01*
G54D10*
X497960Y94054D02*
X503516Y94054D01*
X504627Y93387D01*
X505183Y92054D01*
X505183Y90720D01*
X504627Y89387D01*
X503516Y88720D01*
X497960Y88720D01*
X496849Y89387D01*
X496294Y90720D01*
X496294Y92054D01*
X496849Y93387D01*
X497960Y94054D01*
G54D10*
X496294Y96498D02*
X503516Y96498D01*
X504627Y97164D01*
X505183Y98498D01*
X505183Y99831D01*
X504627Y101164D01*
X503516Y101831D01*
X496294Y101831D01*
G54D10*
X505183Y106941D02*
X496294Y106941D01*
G54D10*
X496294Y104274D02*
X496294Y109608D01*
G54D10*
X499627Y112052D02*
X496294Y115385D01*
X505183Y115385D01*
G54D10*
X533009Y92957D02*
X533009Y88291D01*
X524120Y88291D01*
X524120Y92957D01*
G54D10*
X528564Y88291D02*
X528564Y92957D01*
G54D10*
X533009Y100068D02*
X533009Y95402D01*
X524120Y95402D01*
X524120Y100068D01*
G54D10*
X528564Y95402D02*
X528564Y100068D01*
G54D10*
X533009Y102513D02*
X524120Y102513D01*
X524120Y105846D01*
X524675Y107179D01*
X525786Y107846D01*
X526897Y107846D01*
X528009Y107179D01*
X528564Y105846D01*
X528564Y102513D01*
G54D10*
X405010Y190178D02*
X396121Y190178D01*
G54D10*
X405010Y192622D02*
X396121Y192622D01*
X405010Y197955D01*
X396121Y197955D01*
G54D10*
X399454Y200399D02*
X396121Y203732D01*
X405010Y203732D01*
G54D10*
X428009Y190379D02*
X419120Y190379D01*
G54D10*
X428009Y192823D02*
X419120Y192823D01*
X428009Y198156D01*
X419120Y198156D01*
G54D10*
X428009Y205933D02*
X428009Y200600D01*
X427453Y200600D01*
X426342Y201267D01*
X423009Y205267D01*
X421898Y205933D01*
X420787Y205933D01*
X419676Y205267D01*
X419120Y203933D01*
X419120Y202600D01*
X419676Y201267D01*
X420787Y200600D01*
G54D10*
X502015Y190068D02*
X493126Y190068D01*
G54D10*
X502015Y192512D02*
X493126Y192512D01*
X502015Y197846D01*
X493126Y197846D01*
G54D10*
X494792Y200289D02*
X493681Y200956D01*
X493126Y202289D01*
X493126Y203623D01*
X493681Y204956D01*
X494792Y205623D01*
X495904Y205623D01*
X497015Y204956D01*
X497570Y203623D01*
X498126Y204956D01*
X499237Y205623D01*
X500348Y205623D01*
X501459Y204956D01*
X502015Y203623D01*
X502015Y202289D01*
X501459Y200956D01*
X500348Y200289D01*
G54D10*
X526014Y190278D02*
X517125Y190278D01*
G54D10*
X526014Y192722D02*
X517125Y192722D01*
X526014Y198055D01*
X517125Y198055D01*
G54D10*
X526014Y204499D02*
X517125Y204499D01*
X522680Y200499D01*
X523792Y200499D01*
X523792Y205832D01*
G54D10*
X446215Y179615D02*
X455104Y182948D01*
X446215Y186281D01*
G54D10*
X453437Y194059D02*
X454548Y193392D01*
X455104Y192059D01*
X455104Y190726D01*
X454548Y189392D01*
X453437Y188726D01*
X447882Y188726D01*
X446771Y189392D01*
X446215Y190726D01*
X446215Y192059D01*
X446771Y193392D01*
X447882Y194059D01*
G54D10*
X453437Y201836D02*
X454548Y201169D01*
X455104Y199836D01*
X455104Y198503D01*
X454548Y197169D01*
X453437Y196503D01*
X447882Y196503D01*
X446771Y197169D01*
X446215Y198503D01*
X446215Y199836D01*
X446771Y201169D01*
X447882Y201836D01*
G54D10*
X471650Y183508D02*
X471650Y186175D01*
X474428Y186175D01*
X475539Y185508D01*
X476094Y184175D01*
X476094Y182842D01*
X475539Y181508D01*
X474428Y180842D01*
X468872Y180842D01*
X467761Y181508D01*
X467205Y182842D01*
X467205Y184175D01*
X467761Y185508D01*
X468872Y186175D01*
G54D10*
X476094Y188619D02*
X467205Y188619D01*
X476094Y193952D01*
X467205Y193952D01*
G54D10*
X476094Y196396D02*
X467205Y196396D01*
X467205Y199729D01*
X467761Y201062D01*
X468872Y201729D01*
X474428Y201729D01*
X475539Y201062D01*
X476094Y199729D01*
X476094Y196396D01*
G54D10*
X765675Y97180D02*
X760342Y97180D01*
X760342Y93291D01*
X761008Y93291D01*
X762342Y93847D01*
X763675Y93847D01*
X765008Y93291D01*
X765675Y92180D01*
X765675Y89958D01*
X765008Y88847D01*
X763675Y88291D01*
X762342Y88291D01*
X761008Y88847D01*
X760342Y89958D01*
G54D10*
X768119Y97180D02*
X771452Y88291D01*
X774785Y97180D01*
G54D12*
X593313Y148242D02*
X583980Y148291D01*
X584073Y166068D01*
X593406Y166020D01*
G54D12*
X584027Y157180D02*
X593360Y157131D01*
G54D12*
X598219Y151550D02*
X599541Y149320D01*
X602202Y148196D01*
X604868Y148182D01*
X607541Y149279D01*
X608886Y151494D01*
X608897Y153716D01*
X607575Y155945D01*
X604915Y157070D01*
X602248Y157084D01*
X599588Y158209D01*
X598266Y160439D01*
X598277Y162661D01*
X599622Y164876D01*
X602295Y165973D01*
X604961Y165959D01*
X607622Y164834D01*
X608944Y162605D01*
G54D12*
X613758Y148135D02*
X613851Y165912D01*
X620517Y165878D01*
X623178Y164752D01*
X624500Y162523D01*
X624488Y160301D01*
X623143Y158086D01*
X620471Y156989D01*
X613804Y157024D01*
G54D12*
X629389Y162498D02*
X630734Y164713D01*
X633407Y165810D01*
X636073Y165796D01*
X638734Y164671D01*
X640056Y162442D01*
X640044Y160220D01*
X638699Y158004D01*
X636026Y156907D01*
X638687Y155782D01*
X640009Y153553D01*
X639997Y151331D01*
X638652Y149116D01*
X635980Y148019D01*
X633313Y148033D01*
X630652Y149158D01*
X629331Y151387D01*
G54D12*
X655536Y147916D02*
X644869Y147972D01*
X644875Y149083D01*
X646220Y151298D01*
X654254Y157923D01*
X655600Y160138D01*
X655611Y162361D01*
X654290Y164590D01*
X651629Y165715D01*
X648962Y165729D01*
X646289Y164631D01*
X644945Y162416D01*
G54D12*
X660466Y155668D02*
X671132Y155612D01*
G54D12*
X686665Y151087D02*
X685320Y148872D01*
X682647Y147774D01*
X679981Y147788D01*
X677320Y148913D01*
X675998Y151142D01*
X676056Y162253D01*
X677401Y164469D01*
X680073Y165566D01*
X682741Y165552D01*
X685401Y164427D01*
X686723Y162198D01*
G54D12*
X691612Y162172D02*
X692957Y164387D01*
X695630Y165484D01*
X698296Y165471D01*
X700957Y164345D01*
X702279Y162116D01*
X702267Y159894D01*
X700922Y157679D01*
X698250Y156582D01*
X700910Y155456D01*
X702232Y153227D01*
X702220Y151005D01*
X700876Y148790D01*
X698203Y147693D01*
X695536Y147707D01*
X692876Y148832D01*
X691554Y151061D01*
G54D13*
X585044Y130563D02*
X586036Y128891D01*
X588031Y128047D01*
X590032Y128037D01*
X592036Y128860D01*
X593044Y130521D01*
X593053Y132188D01*
X592062Y133860D01*
X590066Y134703D01*
X588066Y134714D01*
X586070Y135558D01*
X585079Y137229D01*
X585088Y138896D01*
X586097Y140558D01*
X588101Y141380D01*
X590101Y141370D01*
X592096Y140526D01*
X593088Y138854D01*
G54D13*
X602737Y135470D02*
X602698Y127971D01*
G54D13*
X602707Y129637D02*
X601700Y128309D01*
X599698Y127986D01*
X597700Y128330D01*
X596707Y129669D01*
X596737Y135502D01*
G54D13*
X606404Y135451D02*
X606347Y124618D01*
G54D13*
X606378Y130451D02*
X607367Y128279D01*
X609365Y127935D01*
X611366Y128258D01*
X612375Y129920D01*
X612393Y133253D01*
X611402Y134925D01*
X609404Y135436D01*
X607402Y134946D01*
X606391Y132951D01*
G54D13*
X622036Y128703D02*
X620432Y127878D01*
X618432Y127888D01*
X616436Y128732D01*
X616045Y130400D01*
X616060Y133234D01*
X617068Y134895D01*
X619071Y135385D01*
X621068Y134874D01*
X622062Y133703D01*
X622054Y132036D01*
X616054Y132067D01*
G54D13*
X625699Y127850D02*
X625738Y135350D01*
G54D13*
X625729Y133684D02*
X627738Y135340D01*
X629738Y135329D01*
G54D13*
X637232Y127790D02*
X637302Y141123D01*
X642258Y132763D01*
X647302Y141070D01*
X647232Y127737D01*
G54D13*
X650899Y127718D02*
X650939Y135218D01*
G54D13*
X650952Y137718D02*
X650952Y137718D01*
G54D13*
X654566Y127699D02*
X654606Y135199D01*
G54D13*
X654597Y133532D02*
X655603Y134694D01*
X657606Y135183D01*
X659603Y134672D01*
X660596Y133501D01*
X660566Y127668D01*
G54D13*
X664233Y127648D02*
X664273Y135148D01*
G54D13*
X664286Y137648D02*
X664286Y137648D01*
G54D10*
X733903Y92515D02*
X736569Y92515D01*
X736569Y89737D01*
X735903Y88626D01*
X734569Y88070D01*
X733236Y88070D01*
X731903Y88626D01*
X731236Y89737D01*
X731236Y95292D01*
X731903Y96403D01*
X733236Y96959D01*
X734569Y96959D01*
X735903Y96403D01*
X736569Y95292D01*
G54D10*
X739013Y88070D02*
X739013Y96959D01*
X744346Y88070D01*
X744346Y96959D01*
G54D10*
X746790Y88070D02*
X746790Y96959D01*
X750123Y96959D01*
X751457Y96403D01*
X752123Y95292D01*
X752123Y89737D01*
X751457Y88626D01*
X750123Y88070D01*
X746790Y88070D01*
G54D10*
X705739Y95544D02*
X706405Y96655D01*
X707739Y97210D01*
X709072Y97210D01*
X710405Y96655D01*
X711072Y95544D01*
X711072Y94433D01*
X710405Y93322D01*
X709072Y92766D01*
X710405Y92210D01*
X711072Y91099D01*
X711072Y89988D01*
X710405Y88877D01*
X709072Y88322D01*
X707739Y88322D01*
X706405Y88877D01*
X705739Y89988D01*
G54D10*
X713516Y88322D02*
X713516Y88322D01*
G54D10*
X715960Y95544D02*
X716626Y96655D01*
X717960Y97210D01*
X719293Y97210D01*
X720626Y96655D01*
X721293Y95544D01*
X721293Y94433D01*
X720626Y93322D01*
X719293Y92766D01*
X720626Y92210D01*
X721293Y91099D01*
X721293Y89988D01*
X720626Y88877D01*
X719293Y88322D01*
X717960Y88322D01*
X716626Y88877D01*
X715960Y89988D01*
G54D10*
X690818Y88771D02*
X690818Y97660D01*
X686818Y92104D01*
X686818Y90993D01*
X692151Y90993D01*
G54D10*
X663763Y96025D02*
X664430Y97136D01*
X665763Y97692D01*
X667097Y97692D01*
X668430Y97136D01*
X669097Y96025D01*
X669097Y94914D01*
X668430Y93803D01*
X667097Y93248D01*
X668430Y92692D01*
X669097Y91581D01*
X669097Y90470D01*
X668430Y89359D01*
X667097Y88803D01*
X665763Y88803D01*
X664430Y89359D01*
X663763Y90470D01*
G54D10*
X643200Y88803D02*
X637867Y88803D01*
X637867Y89359D01*
X638533Y90470D01*
X642533Y93803D01*
X643200Y94914D01*
X643200Y96025D01*
X642533Y97137D01*
X641200Y97692D01*
X639867Y97692D01*
X638533Y97137D01*
X637867Y96025D01*
G54D10*
X616866Y94370D02*
X620199Y97704D01*
X620199Y88815D01*
G54D10*
X588585Y96025D02*
X588585Y90470D01*
X589252Y89358D01*
X590585Y88803D01*
X591919Y88803D01*
X593252Y89358D01*
X593919Y90470D01*
X593919Y96025D01*
X593252Y97136D01*
X591919Y97692D01*
X590585Y97692D01*
X589252Y97136D01*
X588585Y96025D01*
G54D10*
X773280Y203040D02*
X767947Y203040D01*
X767947Y199151D01*
X768613Y199151D01*
X769947Y199707D01*
X771280Y199707D01*
X772613Y199151D01*
X773280Y198040D01*
X773280Y195818D01*
X772613Y194707D01*
X771280Y194151D01*
X769947Y194151D01*
X768613Y194707D01*
X767947Y195818D01*
G54D10*
X749115Y201706D02*
X748448Y202818D01*
X747115Y203373D01*
X745781Y203373D01*
X744448Y202818D01*
X743781Y201706D01*
X743781Y198929D01*
X743781Y198373D01*
X745781Y199484D01*
X747115Y199484D01*
X748448Y198929D01*
X749115Y197818D01*
X749115Y196151D01*
X748448Y195040D01*
X747115Y194484D01*
X745781Y194484D01*
X744448Y195040D01*
X743781Y196151D01*
X743781Y198929D01*
G54D10*
X718197Y203051D02*
X723530Y203051D01*
X722863Y201940D01*
X721530Y200273D01*
X720197Y198051D01*
X719530Y196385D01*
X719530Y194162D01*
G54D10*
X695907Y198636D02*
X694574Y198636D01*
X693240Y199192D01*
X692574Y200303D01*
X692574Y201414D01*
X693240Y202525D01*
X694574Y203081D01*
X695907Y203081D01*
X697240Y202525D01*
X697907Y201414D01*
X697907Y200303D01*
X697240Y199192D01*
X695907Y198636D01*
X697240Y198081D01*
X697907Y196969D01*
X697907Y195858D01*
X697240Y194747D01*
X695907Y194192D01*
X694574Y194192D01*
X693240Y194747D01*
X692574Y195858D01*
X692574Y196969D01*
X693240Y198081D01*
X694574Y198636D01*
G54D10*
X667142Y195859D02*
X667809Y194748D01*
X669142Y194192D01*
X670476Y194192D01*
X671809Y194748D01*
X672476Y195859D01*
X672476Y198637D01*
X672476Y199192D01*
X670476Y198081D01*
X669142Y198081D01*
X667809Y198637D01*
X667142Y199748D01*
X667142Y201414D01*
X667809Y202525D01*
X669142Y203081D01*
X670476Y203081D01*
X671809Y202525D01*
X672476Y201414D01*
X672476Y198637D01*
G54D10*
X638695Y199625D02*
X642028Y202958D01*
X642028Y194069D01*
G54D10*
X649805Y201291D02*
X649805Y195736D01*
X649139Y194625D01*
X647805Y194069D01*
X646472Y194069D01*
X645139Y194625D01*
X644472Y195736D01*
X644472Y201291D01*
X645139Y202403D01*
X646472Y202958D01*
X647805Y202958D01*
X649139Y202403D01*
X649805Y201291D01*
G54D10*
X615923Y194286D02*
X610590Y194286D01*
X610590Y194842D01*
X611257Y195953D01*
X615257Y199286D01*
X615923Y200397D01*
X615923Y201509D01*
X615257Y202620D01*
X613923Y203175D01*
X612590Y203175D01*
X611257Y202620D01*
X610590Y201509D01*
G54D10*
X623700Y201509D02*
X623700Y195953D01*
X623034Y194842D01*
X621700Y194286D01*
X620367Y194286D01*
X619034Y194842D01*
X618367Y195953D01*
X618367Y201509D01*
X619034Y202620D01*
X620367Y203175D01*
X621700Y203175D01*
X623034Y202620D01*
X623700Y201509D01*
G54D10*
X593788Y194286D02*
X588454Y194286D01*
X588454Y194842D01*
X589121Y195953D01*
X593121Y199286D01*
X593788Y200397D01*
X593788Y201509D01*
X593121Y202620D01*
X591788Y203175D01*
X590454Y203175D01*
X589121Y202620D01*
X588454Y201509D01*
G54D10*
X596231Y199842D02*
X599565Y203175D01*
X599565Y194286D01*
G54D10*
X768795Y231120D02*
X768795Y240009D01*
X772129Y240009D01*
X773462Y239453D01*
X774129Y238342D01*
X774129Y237231D01*
X773462Y236120D01*
X772129Y235564D01*
X773462Y235009D01*
X774129Y233898D01*
X774129Y232787D01*
X773462Y231676D01*
X772129Y231120D01*
X768795Y231120D01*
G54D10*
X768795Y235564D02*
X772129Y235564D01*
G54D10*
X776572Y235009D02*
X781906Y235009D01*
G54D10*
X779239Y237231D02*
X779239Y232787D01*
G54D10*
X717248Y233128D02*
X720581Y242017D01*
X723914Y233128D01*
G54D10*
X718581Y236461D02*
X722581Y236461D01*
G54D10*
X726358Y237017D02*
X731692Y237017D01*
G54D10*
X638149Y233128D02*
X641482Y242017D01*
X644816Y233128D01*
G54D10*
X639482Y236461D02*
X643482Y236461D01*
G54D10*
X647260Y237017D02*
X652593Y237017D01*
G54D10*
X649927Y239239D02*
X649927Y234794D01*
G54D11*
X801000Y82000D02*
X555000Y82000D01*
X556000Y207000D01*
X801000Y207000D01*
X801000Y82000D01*
G54D10*
X741795Y231120D02*
X741795Y240009D01*
X745129Y240009D01*
X746462Y239453D01*
X747129Y238342D01*
X747129Y237231D01*
X746462Y236120D01*
X745129Y235564D01*
X746462Y235009D01*
X747129Y233898D01*
X747129Y232787D01*
X746462Y231676D01*
X745129Y231120D01*
X741795Y231120D01*
G54D10*
X741795Y235564D02*
X745129Y235564D01*
G54D10*
X749572Y235009D02*
X754906Y235009D01*
G54D11*
X807121Y156007D02*
X807000Y122000D01*
X783000Y122000D01*
X783000Y156000D01*
X807000Y156000D01*
G54D10*
X702550Y46037D02*
X703217Y44926D01*
X704550Y44370D01*
X705884Y44370D01*
X707217Y44926D01*
X707884Y46037D01*
X707884Y47148D01*
X707217Y48259D01*
X705884Y48815D01*
X704550Y48815D01*
X703217Y49370D01*
X702550Y50481D01*
X702550Y51592D01*
X703217Y52703D01*
X704550Y53259D01*
X705884Y53259D01*
X707217Y52703D01*
X707884Y51592D01*
G54D10*
X711661Y53259D02*
X711661Y44926D01*
X712327Y44370D01*
X712994Y44592D01*
G54D10*
X710327Y49370D02*
X712994Y49370D01*
G54D10*
X719438Y44926D02*
X718372Y44370D01*
X717038Y44370D01*
X715705Y44926D01*
X715438Y46037D01*
X715438Y47926D01*
X716105Y49037D01*
X717438Y49370D01*
X718772Y49037D01*
X719438Y48259D01*
X719438Y47148D01*
X715438Y47148D01*
G54D10*
X721882Y49370D02*
X721882Y42148D01*
G54D10*
X721882Y46037D02*
X722549Y44592D01*
X723882Y44370D01*
X725216Y44592D01*
X725882Y45703D01*
X725882Y47926D01*
X725216Y49037D01*
X723882Y49370D01*
X722549Y49037D01*
X721882Y47703D01*
G54D10*
X728326Y49370D02*
X728326Y42148D01*
G54D10*
X728326Y46037D02*
X728993Y44592D01*
X730326Y44370D01*
X731660Y44592D01*
X732326Y45703D01*
X732326Y47926D01*
X731660Y49037D01*
X730326Y49370D01*
X728993Y49037D01*
X728326Y47703D01*
G54D10*
X738770Y44926D02*
X737704Y44370D01*
X736370Y44370D01*
X735037Y44926D01*
X734770Y46037D01*
X734770Y47926D01*
X735437Y49037D01*
X736770Y49370D01*
X738104Y49037D01*
X738770Y48259D01*
X738770Y47148D01*
X734770Y47148D01*
G54D10*
X741214Y44370D02*
X741214Y49370D01*
G54D10*
X741214Y48259D02*
X742548Y49370D01*
X743881Y49370D01*
G54D10*
X748902Y53259D02*
X752236Y44370D01*
X755569Y53259D01*
G54D10*
X760590Y49926D02*
X763924Y53259D01*
X763924Y44370D01*
G54D10*
X766367Y44370D02*
X766367Y44370D01*
G54D10*
X774145Y51592D02*
X774145Y46037D01*
X773478Y44926D01*
X772145Y44370D01*
X770811Y44370D01*
X769478Y44926D01*
X768811Y46037D01*
X768811Y51592D01*
X769478Y52703D01*
X770811Y53259D01*
X772145Y53259D01*
X773478Y52703D01*
X774145Y51592D01*
G54D13*
X680725Y140959D02*
X685725Y127626D01*
X690725Y140959D01*
G54D13*
X702392Y130126D02*
X701392Y128459D01*
X699392Y127626D01*
X697392Y127626D01*
X695392Y128459D01*
X694392Y130126D01*
X694392Y138459D01*
X695392Y140126D01*
X697392Y140959D01*
X699392Y140959D01*
X701392Y140126D01*
X702392Y138459D01*
G54D13*
X714059Y130126D02*
X713059Y128459D01*
X711059Y127626D01*
X709059Y127626D01*
X707059Y128459D01*
X706059Y130126D01*
X706059Y138459D01*
X707059Y140126D01*
X709059Y140959D01*
X711059Y140959D01*
X713059Y140126D01*
X714059Y138459D01*
G54D13*
X687952Y111302D02*
X691952Y111302D01*
X691952Y107136D01*
X690952Y105469D01*
X688952Y104636D01*
X686952Y104636D01*
X684952Y105469D01*
X683952Y107136D01*
X683952Y115469D01*
X684952Y117136D01*
X686952Y117969D01*
X688952Y117969D01*
X690952Y117136D01*
X691952Y115469D01*
G54D13*
X695619Y104636D02*
X695619Y117969D01*
X703619Y104636D01*
X703619Y117969D01*
G54D13*
X707286Y104636D02*
X707286Y117969D01*
X712286Y117969D01*
X714286Y117136D01*
X715286Y115469D01*
X715286Y107136D01*
X714286Y105469D01*
X712286Y104636D01*
X707286Y104636D01*
G54D10*
X128889Y200000D02*
X120000Y196667D01*
X128889Y193333D01*
G54D10*
X121667Y185556D02*
X120556Y186222D01*
X120000Y187556D01*
X120000Y188889D01*
X120556Y190222D01*
X121667Y190889D01*
X127222Y190889D01*
X128333Y190222D01*
X128889Y188889D01*
X128889Y187556D01*
X128333Y186222D01*
X127222Y185556D01*
G54D10*
X121667Y177779D02*
X120556Y178445D01*
X120000Y179779D01*
X120000Y181112D01*
X120556Y182445D01*
X121667Y183112D01*
X127222Y183112D01*
X128333Y182445D01*
X128889Y181112D01*
X128889Y179779D01*
X128333Y178445D01*
X127222Y177779D01*
G54D10*
X124444Y147333D02*
X124444Y144667D01*
X121667Y144667D01*
X120556Y145333D01*
X120000Y146667D01*
X120000Y148000D01*
X120556Y149333D01*
X121667Y150000D01*
X127222Y150000D01*
X128333Y149333D01*
X128889Y148000D01*
X128889Y146667D01*
X128333Y145333D01*
X127222Y144667D01*
G54D10*
X120000Y142223D02*
X128889Y142223D01*
X120000Y136890D01*
X128889Y136890D01*
G54D10*
X120000Y134446D02*
X128889Y134446D01*
X128889Y131113D01*
X128333Y129779D01*
X127222Y129113D01*
X121667Y129113D01*
X120556Y129779D01*
X120000Y131113D01*
X120000Y134446D01*
G54D13*
X422130Y139890D02*
X422130Y153223D01*
X427130Y153223D01*
X429130Y152390D01*
X430130Y150723D01*
X430130Y142390D01*
X429130Y140723D01*
X427130Y139890D01*
X422130Y139890D01*
G54D13*
X437797Y146557D02*
X440797Y144890D01*
X441797Y143223D01*
X441797Y139890D01*
G54D13*
X433797Y139890D02*
X433797Y153223D01*
X438797Y153223D01*
X440797Y152390D01*
X441797Y150723D01*
X441797Y149057D01*
X440797Y147390D01*
X438797Y146557D01*
X433797Y146557D01*
G54D13*
X445464Y153223D02*
X450464Y139890D01*
X455464Y153223D01*
G54D13*
X464131Y146557D02*
X462131Y146557D01*
X460131Y147390D01*
X459131Y149057D01*
X459131Y150723D01*
X460131Y152390D01*
X462131Y153223D01*
X464131Y153223D01*
X466131Y152390D01*
X467131Y150723D01*
X467131Y149057D01*
X466131Y147390D01*
X464131Y146557D01*
X466131Y145723D01*
X467131Y144057D01*
X467131Y142390D01*
X466131Y140723D01*
X464131Y139890D01*
X462131Y139890D01*
X460131Y140723D01*
X459131Y142390D01*
X459131Y144057D01*
X460131Y145723D01*
X462131Y146557D01*
G54D13*
X475798Y146557D02*
X473798Y146557D01*
X471798Y147390D01*
X470798Y149057D01*
X470798Y150723D01*
X471798Y152390D01*
X473798Y153223D01*
X475798Y153223D01*
X477798Y152390D01*
X478798Y150723D01*
X478798Y149057D01*
X477798Y147390D01*
X475798Y146557D01*
X477798Y145723D01*
X478798Y144057D01*
X478798Y142390D01*
X477798Y140723D01*
X475798Y139890D01*
X473798Y139890D01*
X471798Y140723D01*
X470798Y142390D01*
X470798Y144057D01*
X471798Y145723D01*
X473798Y146557D01*
G54D13*
X482465Y150723D02*
X483465Y152390D01*
X485465Y153223D01*
X487465Y153223D01*
X489465Y152390D01*
X490465Y150723D01*
X490465Y149057D01*
X489465Y147390D01*
X487465Y146557D01*
X489465Y145723D01*
X490465Y144057D01*
X490465Y142390D01*
X489465Y140723D01*
X487465Y139890D01*
X485465Y139890D01*
X483465Y140723D01*
X482465Y142390D01*
G54D13*
X494132Y150723D02*
X495132Y152390D01*
X497132Y153223D01*
X499132Y153223D01*
X501132Y152390D01*
X502132Y150723D01*
X502132Y149057D01*
X501132Y147390D01*
X499132Y146557D01*
X501132Y145723D01*
X502132Y144057D01*
X502132Y142390D01*
X501132Y140723D01*
X499132Y139890D01*
X497132Y139890D01*
X495132Y140723D01*
X494132Y142390D01*
G54D10*
X229200Y130900D02*
X229200Y139789D01*
X232533Y134233D01*
X235867Y139789D01*
X235867Y130900D01*
G54D10*
X238311Y130900D02*
X238311Y135900D01*
G54D10*
X238311Y137567D02*
X238311Y137567D01*
G54D10*
X240755Y130900D02*
X240755Y135900D01*
G54D10*
X240755Y134789D02*
X241422Y135567D01*
X242755Y135900D01*
X244088Y135567D01*
X244755Y134789D01*
X244755Y130900D01*
G54D10*
X247199Y130900D02*
X247199Y135900D01*
G54D10*
X247199Y137567D02*
X247199Y137567D01*
G54D10*
X249643Y134789D02*
X254976Y134789D01*
G54D10*
X257420Y132567D02*
X258087Y131456D01*
X259420Y130900D01*
X260753Y130900D01*
X262087Y131456D01*
X262753Y132567D01*
X262753Y133678D01*
X262087Y134789D01*
X260753Y135344D01*
X259420Y135344D01*
X258087Y135900D01*
X257420Y137011D01*
X257420Y138122D01*
X258087Y139233D01*
X259420Y139789D01*
X260753Y139789D01*
X262087Y139233D01*
X262753Y138122D01*
G54D10*
X266530Y139789D02*
X266530Y131456D01*
X267197Y130900D01*
X267864Y131122D01*
G54D10*
X265197Y135900D02*
X267864Y135900D01*
G54D10*
X274308Y131456D02*
X273241Y130900D01*
X271908Y130900D01*
X270575Y131456D01*
X270308Y132567D01*
X270308Y134456D01*
X270975Y135567D01*
X272308Y135900D01*
X273641Y135567D01*
X274308Y134789D01*
X274308Y133678D01*
X270308Y133678D01*
G54D10*
X276752Y135900D02*
X276752Y128678D01*
G54D10*
X276752Y132567D02*
X277419Y131122D01*
X278752Y130900D01*
X280085Y131122D01*
X280752Y132233D01*
X280752Y134456D01*
X280085Y135567D01*
X278752Y135900D01*
X277419Y135567D01*
X276752Y134233D01*
G54D10*
X283196Y135900D02*
X283196Y128678D01*
G54D10*
X283196Y132567D02*
X283863Y131122D01*
X285196Y130900D01*
X286529Y131122D01*
X287196Y132233D01*
X287196Y134456D01*
X286529Y135567D01*
X285196Y135900D01*
X283863Y135567D01*
X283196Y134233D01*
G54D10*
X293640Y131456D02*
X292573Y130900D01*
X291240Y130900D01*
X289907Y131456D01*
X289640Y132567D01*
X289640Y134456D01*
X290307Y135567D01*
X291640Y135900D01*
X292973Y135567D01*
X293640Y134789D01*
X293640Y133678D01*
X289640Y133678D01*
G54D10*
X296084Y130900D02*
X296084Y135900D01*
G54D10*
X296084Y134789D02*
X297417Y135900D01*
X298751Y135900D01*
G54D10*
X301195Y134789D02*
X306528Y134789D01*
G54D10*
X308972Y130900D02*
X308972Y139789D01*
X312305Y134233D01*
X315639Y139789D01*
X315639Y130900D01*
G54D10*
X322083Y132233D02*
X322083Y134456D01*
X321416Y135567D01*
X320083Y135900D01*
X318750Y135567D01*
X318083Y134456D01*
X318083Y132233D01*
X318750Y131122D01*
X320083Y130900D01*
X321416Y131122D01*
X322083Y132233D01*
G54D10*
X325860Y139789D02*
X325860Y131456D01*
X326527Y130900D01*
X327194Y131122D01*
G54D10*
X324527Y135900D02*
X327194Y135900D01*
G54D10*
X333638Y132233D02*
X333638Y134456D01*
X332971Y135567D01*
X331638Y135900D01*
X330305Y135567D01*
X329638Y134456D01*
X329638Y132233D01*
X330305Y131122D01*
X331638Y130900D01*
X332971Y131122D01*
X333638Y132233D01*
G54D10*
X336082Y130900D02*
X336082Y135900D01*
G54D10*
X336082Y134789D02*
X337415Y135900D01*
X338749Y135900D01*
G54D10*
X448353Y50565D02*
X448353Y59454D01*
X451686Y59454D01*
X453020Y58898D01*
X453686Y57787D01*
X453686Y56676D01*
X453020Y55565D01*
X451686Y55010D01*
X453020Y54454D01*
X453686Y53343D01*
X453686Y52232D01*
X453020Y51121D01*
X451686Y50565D01*
X448353Y50565D01*
G54D10*
X448353Y55010D02*
X451686Y55010D01*
G54D10*
X456130Y54454D02*
X461464Y54454D01*
G54D10*
X470838Y50557D02*
X474171Y59446D01*
X477504Y50557D01*
G54D10*
X472171Y53890D02*
X476171Y53890D01*
G54D10*
X479949Y54446D02*
X485282Y54446D01*
G54D10*
X497197Y50557D02*
X500530Y59446D01*
X503863Y50557D01*
G54D10*
X498530Y53890D02*
X502530Y53890D01*
G54D10*
X506308Y54446D02*
X511641Y54446D01*
G54D10*
X508974Y56668D02*
X508974Y52223D01*
G54D10*
X421772Y50565D02*
X421772Y59454D01*
X425106Y59454D01*
X426439Y58898D01*
X427106Y57787D01*
X427106Y56676D01*
X426439Y55565D01*
X425106Y55009D01*
X426439Y54454D01*
X427106Y53343D01*
X427106Y52232D01*
X426439Y51121D01*
X425106Y50565D01*
X421772Y50565D01*
G54D10*
X421772Y55009D02*
X425106Y55009D01*
G54D10*
X429549Y54454D02*
X434883Y54454D01*
G54D10*
X432216Y56676D02*
X432216Y52232D01*
M02*
