%FSLAX34Y34*%
%MOMM*%
%LNSOLDERMASK_BOTTOM*%
G71*
G01*
%ADD10C,1.400*%
%ADD11C,1.800*%
%ADD12C,2.200*%
%ADD13C,1.800*%
%LPD*%
G54D10*
X149084Y241987D02*
X133704Y246397D01*
X319739Y74897D02*
G54D11*
D03*
X442120Y40958D02*
G54D11*
D03*
X461205Y114451D02*
G54D11*
D03*
X340103Y148325D02*
G54D11*
D03*
X504008Y21670D02*
G54D12*
D03*
X510582Y46205D02*
G54D12*
D03*
X98417Y43664D02*
G54D11*
D03*
X49968Y58940D02*
G54D11*
D03*
G54D10*
X115794Y252413D02*
X100413Y256823D01*
G54D10*
X184374Y231561D02*
X168994Y235971D01*
G54D10*
X219941Y221095D02*
X204561Y225505D01*
X101789Y236408D02*
G54D11*
D03*
X126105Y229067D02*
G54D11*
D03*
X150421Y221725D02*
G54D11*
D03*
X199053Y207042D02*
G54D11*
D03*
X223368Y199701D02*
G54D11*
D03*
X247685Y192360D02*
G54D11*
D03*
X272000Y185018D02*
G54D11*
D03*
X174737Y214384D02*
G54D11*
D03*
X59016Y90134D02*
G54D11*
D03*
X83332Y82792D02*
G54D11*
D03*
X107647Y75451D02*
G54D11*
D03*
X156279Y60768D02*
G54D11*
D03*
X180595Y53426D02*
G54D11*
D03*
X204911Y46085D02*
G54D11*
D03*
X229227Y38744D02*
G54D11*
D03*
X131963Y68110D02*
G54D11*
D03*
X524812Y93128D02*
G54D12*
D03*
X531386Y117663D02*
G54D12*
D03*
G54D13*
X277775Y29162D02*
X283288Y48387D01*
G54D13*
X304844Y21931D02*
X310356Y41157D01*
G54D10*
X291350Y198339D02*
X306650Y193661D01*
G54D10*
X323350Y188339D02*
X338650Y183661D01*
M02*
