; Drill file
; Format: 2.4 (00.0000)
M48
INCH
T01C0.0315
T02C0.0394
T03C0.1181
%
G05
G90
T01
X-021880Y004380
X-020870Y004380
X-019880Y004870
X-019880Y005880
X-019880Y006880
X-019880Y007870
X-020870Y008380
X-021880Y008380
X-016880Y007870
X-016880Y006880
X-016880Y005880
X-016880Y004870
X-015380Y005880
X-015380Y007380
X-013370Y008380
X-013370Y011370
X-015380Y011370
X-018870Y013740
X-019880Y013740
X-020870Y013740
X-021880Y013740
X-022880Y013740
X-023880Y013740
X-024870Y013740
X-024870Y019740
X-023880Y019740
X-022880Y019740
X-021880Y019740
X-020870Y019740
X-019880Y019740
X-018870Y019740
X-008380Y009380
X-009880Y006480
X-010380Y005930
X-009880Y005370
X-008380Y005370
X-011370Y005880
T02
X-023880Y005880
X-023880Y007380
X-023880Y009880
X-023880Y011370
X-015690Y018720
X-014190Y018720
X-012500Y015500
X-011500Y015500
X-010500Y015500
X-009500Y015500
X-008500Y015500
X-007500Y015500
X-006500Y015500
X-005500Y015500
X-000870Y015850
X-000870Y014350
X-000940Y011010
X-000940Y009510
X-000870Y006920
X-000870Y005420
X-000870Y003000
X-000870Y018390
X-000870Y019890
X-000940Y023570
X000560Y023570
X-004690Y023600
X-006190Y023600
X-008940Y023600
X-010440Y023600
X-012940Y023600
X-014440Y023600
X-017190Y023600
X-018690Y023600
T03
X-026040Y002750
X-025540Y023830
X-007540Y020510
X-004170Y003130
M30
