%FSLAX34Y34*%
%MOMM*%
%LNCOPPER_BOTTOM*%
G71*
G01*
%ADD10C,2.000*%
%ADD11C,2.200*%
%ADD12C,1.600*%
%ADD13C,1.200*%
%ADD14C,1.400*%
%ADD15C,2.200*%
%ADD16C,2.000*%
%ADD17C,1.000*%
%ADD18C,2.400*%
%LPD*%
X-504825Y200025D02*
G54D10*
D03*
X-504825Y174625D02*
G54D10*
D03*
X-504825Y149225D02*
G54D10*
D03*
X-504825Y123825D02*
G54D10*
D03*
X-428625Y200025D02*
G54D10*
D03*
X-428625Y174625D02*
G54D10*
D03*
X-428625Y149225D02*
G54D10*
D03*
X-428625Y123825D02*
G54D10*
D03*
X-530225Y212725D02*
G54D10*
D03*
X-530225Y111125D02*
G54D10*
D03*
X-555625Y212725D02*
G54D10*
D03*
X-555625Y111125D02*
G54D10*
D03*
X-390525Y288925D02*
G54D10*
D03*
X-390525Y187325D02*
G54D10*
D03*
X-288925Y149225D02*
G54D10*
D03*
X-390525Y149225D02*
G54D10*
D03*
X-212725Y238125D02*
G54D10*
D03*
X-212725Y136525D02*
G54D10*
D03*
X-241300Y393700D02*
G54D11*
D03*
X-215900Y393700D02*
G54D11*
D03*
X-190500Y393700D02*
G54D11*
D03*
X-165100Y393700D02*
G54D11*
D03*
X-139700Y393700D02*
G54D11*
D03*
X-250825Y136525D02*
G54D12*
D03*
X-263525Y150525D02*
G54D12*
D03*
X-250825Y164525D02*
G54D12*
D03*
G54D13*
X-606425Y187325D02*
X-555575Y187325D01*
X-555625Y111125D01*
G54D13*
X-606425Y149225D02*
X-606425Y92075D01*
X-530225Y92075D01*
X-530225Y111125D01*
G54D13*
X-555625Y212725D02*
X-530225Y212725D01*
X-530225Y174625D01*
X-504825Y174625D01*
G54D13*
X-504825Y149225D02*
X-530225Y149225D01*
X-530225Y111125D01*
G54D14*
X-606425Y288925D02*
X-213603Y288647D01*
X-212725Y238125D01*
G54D14*
X-606425Y250825D02*
X-631825Y250825D01*
X-631825Y60325D01*
X-339725Y61119D01*
G54D14*
X-428625Y123825D02*
X-428625Y60325D01*
G54D14*
X-428625Y174625D02*
X-428625Y200025D01*
X-428625Y287734D01*
G54D14*
X-288925Y149225D02*
X-263525Y150128D01*
G54D14*
X-250825Y161925D02*
X-250825Y184725D01*
X-338138Y184725D01*
G54D14*
X-250825Y136525D02*
X-212725Y136525D01*
X-339725Y288925D02*
G54D15*
D03*
X-339725Y212725D02*
G54D15*
D03*
G54D16*
X-530225Y359098D02*
X-530225Y339098D01*
G54D16*
X-555625Y359098D02*
X-555625Y339098D01*
G54D16*
X-581025Y359098D02*
X-581025Y339098D01*
G54D16*
X-606425Y359098D02*
X-606425Y339098D01*
G54D16*
X-631825Y359098D02*
X-631825Y339098D01*
G54D16*
X-479425Y359098D02*
X-479425Y339098D01*
G54D16*
X-504825Y359098D02*
X-504825Y339098D01*
G54D16*
X-530225Y511498D02*
X-530225Y491498D01*
G54D16*
X-555625Y511498D02*
X-555625Y491498D01*
G54D16*
X-581025Y511498D02*
X-581025Y491498D01*
G54D16*
X-479425Y511498D02*
X-479425Y491498D01*
G54D16*
X-504825Y511498D02*
X-504825Y491498D01*
G36*
X-596425Y521498D02*
X-596425Y481498D01*
X-616425Y481498D01*
X-616425Y521498D01*
X-596425Y521498D01*
G37*
G54D16*
X-631825Y491498D02*
X-631825Y511498D01*
G54D13*
X-390525Y187325D02*
X-365209Y188238D01*
X-365125Y238522D01*
X-257175Y238522D01*
G54D14*
X-631825Y250825D02*
X-676275Y250825D01*
X-676275Y558800D01*
X-603250Y558800D01*
X-606425Y501498D01*
G54D14*
X-339725Y212725D02*
X-339725Y61119D01*
G54D14*
X-390525Y187325D02*
X-390922Y150019D01*
G54D14*
X-428625Y149225D02*
X-391284Y149225D01*
X-391006Y148947D01*
G54D17*
X-212725Y136525D02*
X-69850Y136525D01*
X-69850Y600075D01*
X-119172Y599432D01*
X-119172Y634357D01*
G54D17*
X-257175Y238522D02*
X-200025Y193675D01*
X-85725Y193675D01*
X-85725Y574675D01*
X-155575Y574675D01*
G36*
X-618425Y262825D02*
X-594425Y262825D01*
X-594425Y238825D01*
X-618425Y238825D01*
X-618425Y262825D01*
G37*
X-606425Y288925D02*
G54D18*
D03*
G36*
X-618425Y161225D02*
X-594425Y161225D01*
X-594425Y137225D01*
X-618425Y137225D01*
X-618425Y161225D01*
G37*
X-606425Y187325D02*
G54D18*
D03*
X-317500Y393700D02*
G54D11*
D03*
X-292100Y393700D02*
G54D11*
D03*
X-266700Y393700D02*
G54D11*
D03*
G36*
X-145272Y611432D02*
X-145272Y587432D01*
X-169272Y587432D01*
X-169272Y611432D01*
X-145272Y611432D01*
G37*
X-119172Y599432D02*
G54D18*
D03*
G36*
X-253222Y611432D02*
X-253222Y587432D01*
X-277222Y587432D01*
X-277222Y611432D01*
X-253222Y611432D01*
G37*
X-227122Y599432D02*
G54D18*
D03*
G36*
X-386572Y487607D02*
X-386572Y463607D01*
X-410572Y463607D01*
X-410572Y487607D01*
X-386572Y487607D01*
G37*
X-360472Y475607D02*
G54D18*
D03*
G36*
X-354822Y611432D02*
X-354822Y587432D01*
X-378822Y587432D01*
X-378822Y611432D01*
X-354822Y611432D01*
G37*
X-328722Y599432D02*
G54D18*
D03*
G36*
X-462772Y611432D02*
X-462772Y587432D01*
X-486772Y587432D01*
X-486772Y611432D01*
X-462772Y611432D01*
G37*
X-436672Y599432D02*
G54D18*
D03*
G54D14*
X-366822Y599432D02*
X-366822Y579328D01*
X-368300Y577850D01*
G54D14*
X-328722Y599432D02*
X-328722Y633522D01*
X-330200Y635000D01*
G54D14*
X-265222Y599432D02*
X-265222Y576372D01*
X-263525Y574675D01*
G54D14*
X-227122Y599432D02*
X-227122Y633522D01*
X-228600Y635000D01*
G54D14*
X-157272Y599432D02*
X-157272Y576372D01*
X-155575Y574675D01*
G54D14*
X-631825Y501498D02*
X-657225Y501650D01*
X-657225Y288925D01*
X-606425Y288925D01*
G54D17*
X-474772Y599432D02*
X-473075Y574675D01*
X-155575Y574675D01*
G54D17*
X-436672Y599432D02*
X-439847Y634357D01*
X-119172Y634357D01*
G54D14*
X-581025Y501498D02*
X-581025Y536575D01*
X-316840Y536423D01*
X-317500Y393700D01*
G54D14*
X-292100Y393700D02*
X-291689Y558389D01*
X-603250Y558800D01*
G54D14*
X-266700Y393700D02*
X-266959Y367889D01*
X-457200Y368300D01*
X-457200Y381000D01*
X-504825Y381000D01*
X-504825Y349098D01*
G54D14*
X-165100Y393700D02*
X-165359Y348839D01*
X-479425Y349098D01*
G54D14*
X-241300Y393700D02*
X-241559Y440914D01*
X-104775Y441325D01*
X-104775Y314325D01*
X-530225Y311150D01*
X-530225Y349098D01*
G54D14*
X-398572Y475607D02*
X-360472Y475607D01*
G54D14*
X-479425Y501498D02*
X-478438Y476098D01*
X-398572Y475607D01*
G36*
X-11766Y267656D02*
X-35766Y267656D01*
X-35766Y291656D01*
X-11766Y291656D01*
X-11766Y267656D01*
G37*
X-23766Y241556D02*
G54D18*
D03*
G36*
X-10179Y493080D02*
X-34179Y493080D01*
X-34179Y517080D01*
X-10179Y517080D01*
X-10179Y493080D01*
G37*
X-22179Y466980D02*
G54D18*
D03*
G36*
X-10179Y390692D02*
X-34179Y390692D01*
X-34179Y414692D01*
X-10179Y414692D01*
X-10179Y390692D01*
G37*
X-22179Y364592D02*
G54D18*
D03*
G36*
X-10179Y163680D02*
X-34179Y163680D01*
X-34179Y187680D01*
X-10179Y187680D01*
X-10179Y163680D01*
G37*
X-22179Y137580D02*
G54D18*
D03*
G36*
X-11922Y610644D02*
X-11922Y586644D01*
X-35922Y586644D01*
X-35922Y610644D01*
X-11922Y610644D01*
G37*
X14178Y598644D02*
G54D18*
D03*
G36*
X-34225Y88200D02*
X-10225Y88200D01*
X-10225Y64200D01*
X-34225Y64200D01*
X-34225Y88200D01*
G37*
G54D14*
X-23922Y598644D02*
X-23812Y569912D01*
X8956Y570078D01*
X6241Y96946D01*
X-22225Y76200D01*
G54D14*
X-22179Y505080D02*
X7938Y504825D01*
G54D14*
X-23766Y279656D02*
X7938Y279400D01*
G54D14*
X-23766Y466980D02*
X-23766Y402692D01*
G54D14*
X-25354Y241556D02*
X-25354Y177267D01*
G54D14*
X14178Y598644D02*
X12700Y631825D01*
X-49212Y631825D01*
X-49212Y136525D01*
X-22179Y137580D01*
G54D14*
X-22179Y364592D02*
X-48680Y364592D01*
X-49212Y365125D01*
M02*
