; Drill file
; Format: 2.4 (00.0000)
M48
INCH
T01C0.0315
T02C0.0394
T03C0.0866
%
G05
G90
T01
X005870Y000520
X005890Y001220
X006890Y001230
X006870Y000520
X007870Y000520
X007890Y001230
X008890Y001230
X008870Y000520
X009870Y000530
X009890Y001230
T02
X002000Y000530
X002980Y002220
X002980Y003220
X002980Y004220
X003000Y006250
X003000Y007250
X005930Y008160
X006930Y008160
X007930Y008160
X008930Y008160
X009930Y008170
X010930Y008170
X011930Y008170
X012930Y008170
X012890Y002170
X011890Y002170
X010890Y002170
X009890Y002170
X008890Y002160
X007890Y002160
X006890Y002160
X005890Y002160
X004000Y000520
T03
X000700Y000740
X000660Y007880
X014650Y007840
X014700Y000720
M30
