; Drill file
; Format: 2.4 (00.0000)
M48
INCH
T01C0.0315
T02C0.0394
T03C0.0866
%
G05
G90
T01
X005430Y000520
X005410Y001220
X006410Y001220
X006430Y000520
X007430Y000520
X007410Y001220
X008410Y001220
X008430Y000510
X009430Y000510
X009410Y001220
T02
X002410Y002160
X003410Y002160
X004410Y002160
X005410Y002160
X006410Y002160
X007410Y002160
X008410Y002160
X009410Y002150
X011300Y000510
X012310Y002220
X012310Y003220
X012310Y004220
X012300Y005520
X012300Y006520
X009370Y008150
X008370Y008160
X007370Y008160
X006370Y008160
X005370Y008160
X004370Y008160
X003370Y008160
X002370Y008160
X013300Y000520
T03
X000600Y000710
X000650Y007830
X014640Y007870
X014600Y000740
M30
