%FSLAX34Y34*%
%MOMM*%
%LNCOPPER_BOTTOM*%
G71*
G01*
%ADD10C,2.000*%
%ADD11C,2.000*%
%ADD12C,1.400*%
%ADD13C,1.200*%
%ADD14C,1.600*%
%ADD15C,1.600*%
%LPD*%
X60108Y207271D02*
G54D10*
D03*
X85508Y207249D02*
G54D10*
D03*
X110909Y207227D02*
G54D10*
D03*
X161708Y207182D02*
G54D10*
D03*
X187108Y207160D02*
G54D10*
D03*
X212508Y207138D02*
G54D10*
D03*
X237908Y207116D02*
G54D10*
D03*
X136308Y207205D02*
G54D10*
D03*
X61305Y54876D02*
G54D10*
D03*
X86705Y54854D02*
G54D10*
D03*
X112105Y54831D02*
G54D10*
D03*
X162905Y54787D02*
G54D10*
D03*
X188305Y54765D02*
G54D10*
D03*
X213705Y54743D02*
G54D10*
D03*
X239105Y54721D02*
G54D10*
D03*
X137505Y54809D02*
G54D10*
D03*
G54D11*
X322400Y140294D02*
X302400Y140294D01*
G54D11*
X322400Y165694D02*
X302400Y165694D01*
G54D11*
X322800Y56269D02*
X302800Y56269D01*
G54D11*
X322800Y81669D02*
X302800Y81669D01*
G54D11*
X322800Y107069D02*
X302800Y107069D01*
G54D12*
X312400Y140294D02*
X277196Y140406D01*
X277200Y56669D01*
X312800Y56269D01*
G54D12*
X86705Y54854D02*
X86705Y86963D01*
X86600Y87069D01*
X277800Y87069D01*
G54D12*
X312800Y107069D02*
X362803Y106163D01*
X362803Y166091D01*
X258028Y165694D01*
X258200Y109769D01*
X60900Y110069D01*
X61200Y54982D01*
X61305Y54876D01*
G54D13*
X312800Y81669D02*
X363200Y81160D01*
X363200Y50600D01*
X337800Y25200D01*
X337800Y13294D01*
G54D12*
X239105Y54721D02*
X239105Y30908D01*
G54D13*
X137387Y13000D02*
X248106Y12897D01*
X287000Y12897D01*
G54D14*
X345800Y13294D02*
X329800Y13294D01*
G54D14*
X295000Y12897D02*
X279000Y12897D01*
X163302Y13116D02*
G54D15*
D03*
X188702Y13093D02*
G54D15*
D03*
X214102Y13071D02*
G54D15*
D03*
X239502Y13049D02*
G54D15*
D03*
X137902Y13137D02*
G54D15*
D03*
X162905Y30975D02*
G54D15*
D03*
X188305Y30952D02*
G54D15*
D03*
X213705Y30930D02*
G54D15*
D03*
X239105Y30908D02*
G54D15*
D03*
X137505Y30997D02*
G54D15*
D03*
G54D12*
X213705Y54743D02*
X213705Y30930D01*
G54D12*
X188305Y54765D02*
X188305Y30952D01*
G54D12*
X162905Y54787D02*
X162905Y30974D01*
G54D12*
X137505Y54809D02*
X137505Y30997D01*
M02*
