%FSLAX34Y34*%
%MOMM*%
%LNSILK_TOP*%
G71*
G01*
%ADD10C,0.111*%
%ADD11C,0.222*%
%ADD12C,0.167*%
%ADD13C,0.150*%
%ADD14C,0.144*%
%LPD*%
G54D10*
X67323Y117017D02*
X62155Y118335D01*
X61195Y114566D01*
X61840Y114402D01*
X63270Y114611D01*
X64562Y114281D01*
X65717Y113414D01*
X66088Y112172D01*
X65540Y110019D01*
X64619Y109107D01*
X63190Y108898D01*
X61898Y109227D01*
X60743Y110095D01*
X60372Y111336D01*
G54D10*
X69691Y116414D02*
X70726Y106977D01*
X76152Y114767D01*
G54D10*
X210699Y160470D02*
X212894Y169083D01*
X216124Y168260D01*
X217279Y167392D01*
X217651Y166150D01*
X217376Y165074D01*
X216456Y164162D01*
X215027Y163953D01*
X216182Y163085D01*
X216553Y161844D01*
X216278Y160767D01*
X215358Y159855D01*
X213929Y159646D01*
X210699Y160470D01*
G54D10*
X211797Y164776D02*
X215027Y163953D01*
G54D10*
X219195Y162317D02*
X224363Y161000D01*
G54D10*
X222328Y163812D02*
X221231Y159505D01*
G54D10*
X139413Y182264D02*
X141608Y190878D01*
X144838Y190054D01*
X145993Y189187D01*
X146365Y187945D01*
X146090Y186869D01*
X145170Y185957D01*
X143740Y185748D01*
X144895Y184880D01*
X145266Y183639D01*
X144992Y182562D01*
X144072Y181650D01*
X142643Y181441D01*
X139413Y182264D01*
G54D10*
X140510Y186571D02*
X143740Y185748D01*
G54D10*
X147909Y184112D02*
X153077Y182794D01*
G54D10*
X114841Y189764D02*
X120266Y197554D01*
X121301Y188117D01*
G54D10*
X116956Y192664D02*
X120832Y191676D01*
G54D10*
X124630Y191282D02*
X129798Y189964D01*
G54D10*
X93123Y196404D02*
X98548Y204194D01*
X99583Y194757D01*
G54D10*
X95238Y199304D02*
X99114Y198316D01*
G54D10*
X102912Y197922D02*
X108081Y196604D01*
G54D10*
X106045Y199416D02*
X104948Y195109D01*
G54D10*
X432731Y28151D02*
X434144Y18763D01*
X439252Y26765D01*
G54D10*
X439795Y17562D02*
X441643Y26257D01*
G54D10*
X442994Y20858D02*
X448211Y19749D01*
G54D10*
X446065Y22477D02*
X445141Y18130D01*
G54D10*
X461745Y133022D02*
X463157Y123635D01*
X468266Y131636D01*
G54D10*
X468808Y122434D02*
X470656Y131128D01*
G54D10*
X472007Y125729D02*
X477224Y124620D01*
G54D10*
X325621Y168570D02*
X327033Y159183D01*
X332142Y167184D01*
G54D10*
X339403Y163937D02*
X338248Y158503D01*
X337365Y157555D01*
X335945Y157288D01*
X334641Y157566D01*
X333452Y158386D01*
X333031Y159612D01*
X334186Y165046D01*
X335069Y165994D01*
X336489Y166260D01*
X337793Y165983D01*
X338982Y165162D01*
X339403Y163937D01*
G54D10*
X341100Y160168D02*
X346317Y159060D01*
G54D10*
X301305Y67101D02*
X302718Y57713D01*
X307826Y65715D01*
G54D10*
X315087Y62467D02*
X313932Y57033D01*
X313049Y56085D01*
X311630Y55819D01*
X310325Y56096D01*
X309137Y56917D01*
X308716Y58142D01*
X309871Y63576D01*
X310754Y64524D01*
X312173Y64791D01*
X313478Y64513D01*
X314666Y63693D01*
X315087Y62467D01*
G54D10*
X316785Y58699D02*
X322001Y57590D01*
G54D10*
X319855Y60318D02*
X318931Y55971D01*
G54D11*
X123768Y154118D02*
X114857Y156893D01*
X120143Y173866D01*
X129054Y171091D01*
G54D11*
X117500Y165380D02*
X126411Y162604D01*
G54D11*
X129426Y155846D02*
X130039Y153328D01*
X132254Y151474D01*
X134800Y150681D01*
X137676Y150949D01*
X139610Y152674D01*
X140271Y154796D01*
X139659Y157314D01*
X137443Y159168D01*
X134898Y159961D01*
X132682Y161815D01*
X132070Y164333D01*
X132730Y166455D01*
X134664Y168180D01*
X137541Y168448D01*
X140087Y167655D01*
X142302Y165801D01*
X142915Y163283D01*
G54D11*
X143288Y148038D02*
X148574Y165011D01*
X154939Y163029D01*
X157155Y161175D01*
X157767Y158657D01*
X157106Y156535D01*
X155172Y154810D01*
X152296Y154542D01*
X145931Y156525D01*
G54D11*
X162435Y157203D02*
X164369Y158928D01*
X167246Y159196D01*
X169791Y158403D01*
X172007Y156549D01*
X172619Y154031D01*
X171958Y151909D01*
X170025Y150184D01*
X167148Y149916D01*
X169363Y148062D01*
X169976Y145544D01*
X169315Y143422D01*
X167381Y141697D01*
X164505Y141429D01*
X161959Y142222D01*
X159743Y144076D01*
X159131Y146594D01*
G54D11*
X183176Y135614D02*
X172992Y138786D01*
X173323Y139847D01*
X175256Y141572D01*
X184876Y145558D01*
X186811Y147283D01*
X187471Y149405D01*
X186859Y151923D01*
X184644Y153777D01*
X182098Y154570D01*
X179221Y154302D01*
X177287Y152577D01*
G54D11*
X190157Y141586D02*
X200341Y138414D01*
G54D11*
X213872Y129544D02*
X211938Y127819D01*
X209061Y127551D01*
X206516Y128344D01*
X204300Y130198D01*
X203688Y132716D01*
X206992Y143325D01*
X208926Y145050D01*
X211802Y145318D01*
X214348Y144525D01*
X216564Y142671D01*
X217176Y140153D01*
G54D11*
X221844Y138699D02*
X223778Y140424D01*
X226655Y140692D01*
X229200Y139899D01*
X231416Y138045D01*
X232028Y135527D01*
X231367Y133405D01*
X229434Y131680D01*
X226557Y131412D01*
X228772Y129558D01*
X229385Y127040D01*
X228724Y124919D01*
X226790Y123193D01*
X223914Y122926D01*
X221368Y123718D01*
X219152Y125572D01*
X218540Y128091D01*
G54D12*
X108690Y140241D02*
X109149Y138352D01*
X110811Y136961D01*
X112720Y136367D01*
X114877Y136568D01*
X116328Y137861D01*
X116824Y139453D01*
X116364Y141342D01*
X114702Y142732D01*
X112793Y143326D01*
X111131Y144717D01*
X110672Y146605D01*
X111168Y148197D01*
X112618Y149491D01*
X114776Y149692D01*
X116685Y149097D01*
X118346Y147707D01*
X118806Y145818D01*
G54D12*
X127044Y139760D02*
X124814Y132600D01*
G54D12*
X125310Y134191D02*
X123958Y133216D01*
X121950Y133492D01*
X120139Y134405D01*
X119581Y135975D01*
X121316Y141545D01*
G54D12*
X130545Y138670D02*
X127324Y128327D01*
G54D12*
X129059Y133896D02*
X129369Y131530D01*
X131179Y130617D01*
X133188Y130341D01*
X134638Y131635D01*
X135629Y134817D01*
X135170Y136706D01*
X133410Y137778D01*
X131352Y137895D01*
X129802Y136283D01*
G54D12*
X143521Y127646D02*
X141746Y127326D01*
X139836Y127921D01*
X138174Y129311D01*
X138288Y131021D01*
X139131Y133727D01*
X140581Y135021D01*
X142639Y134903D01*
X144400Y133831D01*
X145008Y132420D01*
X144512Y130829D01*
X138784Y132613D01*
G54D12*
X146775Y125760D02*
X149005Y132920D01*
G54D12*
X148509Y131330D02*
X150914Y132326D01*
X152824Y131731D01*
G54D12*
X157786Y122330D02*
X161752Y135060D01*
X164047Y125617D01*
X171299Y132087D01*
X167334Y119356D01*
G54D12*
X170835Y118266D02*
X173066Y125426D01*
G54D12*
X173809Y127813D02*
X173809Y127813D01*
G54D12*
X174336Y117175D02*
X176567Y124336D01*
G54D12*
X176071Y122745D02*
X177373Y123561D01*
X179431Y123444D01*
X181192Y122372D01*
X181800Y120960D01*
X180065Y115391D01*
G54D12*
X183566Y114301D02*
X185797Y121461D01*
G54D12*
X186540Y123848D02*
X186540Y123848D01*
G54D10*
X84970Y106849D02*
X87554Y106190D01*
X86868Y103498D01*
X85947Y102586D01*
X84519Y102377D01*
X83226Y102707D01*
X82072Y103574D01*
X81700Y104816D01*
X83072Y110199D01*
X83993Y111111D01*
X85422Y111320D01*
X86714Y110991D01*
X87869Y110123D01*
X88240Y108882D01*
G54D10*
X88824Y101280D02*
X91020Y109893D01*
X93992Y99962D01*
X96188Y108576D01*
G54D10*
X96360Y99359D02*
X98556Y107972D01*
X101786Y107149D01*
X102941Y106282D01*
X103312Y105040D01*
X101940Y99656D01*
X101020Y98745D01*
X99590Y98536D01*
X96360Y99359D01*
G54D10*
X112488Y101206D02*
X113408Y102118D01*
X114837Y102327D01*
X116130Y101998D01*
X117284Y101130D01*
X117656Y99889D01*
X117382Y98812D01*
X116461Y97900D01*
X115032Y97691D01*
X116186Y96823D01*
X116558Y95582D01*
X116284Y94506D01*
X115363Y93594D01*
X113934Y93385D01*
X112642Y93714D01*
X111487Y94581D01*
X111115Y95823D01*
G54D10*
X118240Y92287D02*
X118240Y92287D01*
G54D10*
X122393Y98682D02*
X123312Y99594D01*
X124742Y99803D01*
X126034Y99474D01*
X127189Y98606D01*
X127560Y97364D01*
X127286Y96287D01*
X126365Y95375D01*
X124936Y95166D01*
X126091Y94299D01*
X126462Y93058D01*
X126188Y91981D01*
X125268Y91069D01*
X123838Y90860D01*
X122546Y91189D01*
X121392Y92057D01*
X121020Y93298D01*
G54D10*
X142363Y84563D02*
X144558Y93177D01*
X139310Y88781D01*
X139036Y87705D01*
X144204Y86387D01*
G54D10*
X162393Y85949D02*
X163313Y86861D01*
X164742Y87070D01*
X166034Y86740D01*
X167189Y85872D01*
X167561Y84631D01*
X167286Y83554D01*
X166366Y82643D01*
X164937Y82433D01*
X166092Y81566D01*
X166463Y80324D01*
X166188Y79248D01*
X165268Y78336D01*
X163839Y78127D01*
X162547Y78456D01*
X161392Y79324D01*
X161021Y80565D01*
G54D10*
X190553Y70156D02*
X185385Y71474D01*
X185522Y72012D01*
X186443Y72924D01*
X191142Y75166D01*
X192062Y76078D01*
X192337Y77155D01*
X191965Y78396D01*
X190810Y79264D01*
X189518Y79593D01*
X188089Y79384D01*
X187168Y78472D01*
G54D10*
X214252Y68224D02*
X218305Y70630D01*
X216110Y62017D01*
G54D10*
X240946Y62195D02*
X239573Y56812D01*
X238653Y55900D01*
X237224Y55691D01*
X235931Y56020D01*
X234777Y56888D01*
X234405Y58129D01*
X235778Y63513D01*
X236698Y64425D01*
X238127Y64634D01*
X239419Y64304D01*
X240574Y63437D01*
X240946Y62195D01*
G54D10*
X105508Y217255D02*
X100339Y218572D01*
X99379Y214804D01*
X100025Y214639D01*
X101454Y214848D01*
X102746Y214519D01*
X103901Y213651D01*
X104273Y212410D01*
X103723Y210256D01*
X102803Y209344D01*
X101374Y209135D01*
X100082Y209465D01*
X98927Y210332D01*
X98556Y211573D01*
G54D10*
X124400Y210086D02*
X124029Y211327D01*
X122874Y212195D01*
X121582Y212524D01*
X120153Y212315D01*
X119233Y211403D01*
X118546Y208712D01*
X118409Y208173D01*
X120622Y208756D01*
X121914Y208426D01*
X123068Y207559D01*
X123440Y206317D01*
X123028Y204702D01*
X122108Y203790D01*
X120679Y203581D01*
X119386Y203911D01*
X118232Y204778D01*
X117860Y206020D01*
X118546Y208712D01*
G54D10*
X142506Y205692D02*
X147674Y204374D01*
X146753Y203462D01*
X145049Y202177D01*
X143209Y200353D01*
X142151Y198902D01*
X141602Y196749D01*
G54D10*
X168749Y193221D02*
X167457Y193550D01*
X166302Y194418D01*
X165930Y195659D01*
X166205Y196736D01*
X167125Y197648D01*
X168554Y197857D01*
X169847Y197528D01*
X171001Y196660D01*
X171373Y195419D01*
X171098Y194342D01*
X170178Y193430D01*
X168749Y193221D01*
X169904Y192354D01*
X170275Y191112D01*
X170001Y190035D01*
X169081Y189123D01*
X167651Y188914D01*
X166359Y189244D01*
X165204Y190111D01*
X164833Y191353D01*
X165107Y192430D01*
X166028Y193341D01*
X167457Y193550D01*
G54D10*
X189154Y183917D02*
X189526Y182676D01*
X190680Y181808D01*
X191972Y181479D01*
X193402Y181688D01*
X194322Y182600D01*
X195008Y185292D01*
X195145Y185830D01*
X192933Y185248D01*
X191641Y185577D01*
X190486Y186445D01*
X190114Y187686D01*
X190526Y189301D01*
X191447Y190213D01*
X192876Y190422D01*
X194168Y190093D01*
X195323Y189225D01*
X195694Y187983D01*
X195008Y185292D01*
G54D10*
X211663Y180969D02*
X215716Y183376D01*
X213520Y174762D01*
G54D10*
X222840Y179840D02*
X221468Y174456D01*
X220548Y173544D01*
X219119Y173335D01*
X217827Y173665D01*
X216672Y174532D01*
X216300Y175774D01*
X217673Y181157D01*
X218593Y182069D01*
X220022Y182278D01*
X221314Y181949D01*
X222470Y181081D01*
X222840Y179840D01*
G54D10*
X240527Y166831D02*
X235359Y168149D01*
X235496Y168687D01*
X236417Y169599D01*
X241116Y171841D01*
X242036Y172753D01*
X242311Y173830D01*
X241939Y175071D01*
X240785Y175939D01*
X239492Y176268D01*
X238063Y176059D01*
X237143Y175147D01*
G54D10*
X249847Y171909D02*
X248474Y166525D01*
X247554Y165613D01*
X246125Y165405D01*
X244833Y165734D01*
X243678Y166602D01*
X243306Y167843D01*
X244679Y173226D01*
X245599Y174138D01*
X247028Y174347D01*
X248321Y174018D01*
X249475Y173150D01*
X249847Y171909D01*
G54D10*
X263531Y159798D02*
X258363Y161116D01*
X258501Y161654D01*
X259421Y162566D01*
X264120Y164808D01*
X265041Y165720D01*
X265315Y166797D01*
X264943Y168038D01*
X263789Y168906D01*
X262497Y169235D01*
X261068Y169026D01*
X260147Y168114D01*
G54D10*
X267271Y164578D02*
X271325Y166985D01*
X269129Y158371D01*
G54D10*
X342860Y23110D02*
X345310Y31655D01*
X348514Y30736D01*
X349643Y29834D01*
X349978Y28582D01*
X348446Y23242D01*
X347499Y22358D01*
X346064Y22191D01*
X342860Y23110D01*
G54D10*
X350336Y20966D02*
X352786Y29511D01*
X354459Y23252D01*
X359194Y27673D01*
X356744Y19129D01*
G54D10*
X360625Y23795D02*
X364748Y26081D01*
X362298Y17536D01*
G54D10*
X366638Y23805D02*
X367585Y24689D01*
X369020Y24856D01*
X370301Y24488D01*
X371430Y23587D01*
X371765Y22335D01*
X371458Y21267D01*
X370511Y20383D01*
X369076Y20216D01*
X370205Y19315D01*
X370540Y18063D01*
X370233Y16995D01*
X369286Y16110D01*
X367851Y15944D01*
X366570Y16311D01*
X365441Y17213D01*
X365106Y18465D01*
G54D10*
X372123Y14719D02*
X374573Y23264D01*
X377777Y22345D01*
X378906Y21443D01*
X379240Y20191D01*
X378934Y19123D01*
X377987Y18239D01*
X376552Y18073D01*
X377681Y17171D01*
X378015Y15919D01*
X377709Y14851D01*
X376762Y13967D01*
X375327Y13800D01*
X372123Y14719D01*
G54D10*
X373348Y18991D02*
X376552Y18073D01*
G54D10*
X380670Y16314D02*
X385797Y14844D01*
G54D10*
X394651Y17506D02*
X389524Y18976D01*
X388452Y15238D01*
X389093Y15054D01*
X390528Y15221D01*
X391810Y14853D01*
X392938Y13952D01*
X393273Y12700D01*
X392660Y10564D01*
X391713Y9680D01*
X390279Y9513D01*
X388997Y9881D01*
X387868Y10782D01*
X387534Y12034D01*
G54D13*
X104516Y28424D02*
X112154Y52649D01*
X43868Y74179D01*
X36230Y49955D01*
X104516Y28424D01*
G54D13*
X73313Y43191D02*
X78124Y58451D01*
G54D13*
X70261Y44153D02*
X75072Y59413D01*
G54D13*
X87830Y47002D02*
X75718Y50821D01*
G54D13*
X72666Y51783D02*
X60554Y55602D01*
G54D14*
X22562Y61225D02*
X21311Y60097D01*
X19442Y59913D01*
X17784Y60420D01*
X16338Y61617D01*
X15932Y63252D01*
X18043Y70159D01*
X19294Y71286D01*
X21163Y71470D01*
X22821Y70964D01*
X24267Y69766D01*
X24674Y68131D01*
G54D14*
X27079Y65130D02*
X32490Y68008D01*
X29111Y56957D01*
G54D12*
X544425Y26267D02*
X546319Y26703D01*
X547730Y28348D01*
X548348Y30250D01*
X548173Y32410D01*
X546897Y33876D01*
X542934Y35163D01*
X542142Y35421D01*
X542800Y32052D01*
X542182Y30150D01*
X540771Y28506D01*
X538877Y28070D01*
X536500Y28842D01*
X535224Y30308D01*
X535049Y32468D01*
X535667Y34370D01*
X537078Y36015D01*
X538971Y36451D01*
X542934Y35163D01*
G54D12*
X538922Y44388D02*
X553148Y45024D01*
X542012Y53899D01*
G54D12*
X555778Y59591D02*
X552608Y60621D01*
X550714Y60185D01*
X549620Y58437D01*
X549478Y56381D01*
X550754Y54914D01*
X553924Y53885D01*
X555819Y54320D01*
X556753Y56120D01*
X557054Y58125D01*
X555778Y59591D01*
G54D12*
X558813Y62460D02*
X546133Y66581D01*
G54D12*
X547884Y71970D02*
X559772Y68107D01*
X560874Y68801D01*
X560866Y69855D01*
G54D12*
X552814Y68265D02*
X554050Y72070D01*
G54D12*
X556378Y79235D02*
X558850Y86843D01*
G54D12*
X559548Y78205D02*
X562020Y85813D01*
G54D12*
X551026Y82684D02*
X543264Y84619D01*
G54D12*
X546339Y80417D02*
X547951Y86886D01*
G54D12*
X532055Y18539D02*
X524293Y20475D01*
G54D12*
X527367Y16273D02*
X528980Y22741D01*
G54D12*
X531112Y35601D02*
X533047Y43363D01*
G54D12*
X550580Y108850D02*
X552516Y116612D01*
G54D10*
X184348Y226444D02*
X186498Y235069D01*
X189733Y234262D01*
X190892Y233401D01*
X191270Y232161D01*
X191001Y231083D01*
X190086Y230166D01*
X188657Y229950D01*
X189817Y229088D01*
X190195Y227849D01*
X189926Y226771D01*
X189010Y225854D01*
X187582Y225637D01*
X184348Y226444D01*
G54D10*
X185423Y230756D02*
X188657Y229950D01*
G54D10*
X192835Y228336D02*
X198010Y227045D01*
G54D10*
X195960Y229847D02*
X194885Y225534D01*
G54D10*
X226412Y212515D02*
X228563Y221139D01*
X231797Y220333D01*
X232956Y219471D01*
X233334Y218232D01*
X233066Y217154D01*
X232150Y216237D01*
X230722Y216021D01*
X231881Y215159D01*
X232259Y213920D01*
X231991Y212842D01*
X231075Y211925D01*
X229647Y211708D01*
X226412Y212515D01*
G54D10*
X227488Y216827D02*
X230722Y216021D01*
G54D10*
X234899Y214407D02*
X240074Y213116D01*
G54D10*
X147430Y236605D02*
X152814Y244423D01*
X153898Y234992D01*
G54D10*
X149530Y239516D02*
X153411Y238549D01*
G54D10*
X157211Y238174D02*
X162386Y236884D01*
G54D10*
X113213Y247478D02*
X118598Y255297D01*
X119682Y245866D01*
G54D10*
X115314Y250390D02*
X119195Y249422D01*
G54D10*
X122995Y249048D02*
X128170Y247757D01*
G54D10*
X126120Y250559D02*
X125044Y246246D01*
G54D12*
X130551Y13198D02*
X129551Y11531D01*
X127551Y10698D01*
X125551Y10698D01*
X123551Y11531D01*
X122551Y13198D01*
X122551Y21531D01*
X123551Y23198D01*
X125551Y24031D01*
X127551Y24031D01*
X129551Y23198D01*
X130551Y21531D01*
G54D12*
X134218Y10698D02*
X139218Y24031D01*
X144218Y10698D01*
G54D12*
X136218Y15698D02*
X142218Y15698D01*
G54D12*
X147885Y10698D02*
X147885Y24031D01*
X155885Y10698D01*
X155885Y24031D01*
G54D12*
X159552Y8198D02*
X161552Y7365D01*
X162952Y7365D01*
X164952Y8198D01*
X165552Y9865D01*
X165552Y18198D01*
G54D12*
X165552Y16031D02*
X164552Y17698D01*
X162552Y18198D01*
X160552Y17698D01*
X159552Y16031D01*
X159552Y12698D01*
X160552Y11031D01*
X162552Y10698D01*
X164552Y11031D01*
X165552Y12698D01*
G54D12*
X175219Y18198D02*
X175219Y10698D01*
G54D12*
X175219Y12365D02*
X174219Y11031D01*
X172219Y10698D01*
X170219Y11031D01*
X169219Y12365D01*
X169219Y18198D01*
G54D12*
X178886Y10698D02*
X178886Y18198D01*
G54D12*
X178886Y16531D02*
X180886Y18198D01*
X182886Y18198D01*
G54D12*
X192553Y18198D02*
X192553Y10698D01*
G54D12*
X192553Y12365D02*
X191553Y11031D01*
X189553Y10698D01*
X187553Y11031D01*
X186553Y12365D01*
X186553Y18198D01*
G54D12*
X196220Y16531D02*
X204220Y16531D01*
G54D12*
X207887Y13198D02*
X208887Y11531D01*
X210887Y10698D01*
X212887Y10698D01*
X214887Y11531D01*
X215887Y13198D01*
X215887Y14865D01*
X214887Y16531D01*
X212887Y17365D01*
X210887Y17365D01*
X208887Y18198D01*
X207887Y19865D01*
X207887Y21531D01*
X208887Y23198D01*
X210887Y24031D01*
X212887Y24031D01*
X214887Y23198D01*
X215887Y21531D01*
G54D12*
X221554Y24031D02*
X221554Y11531D01*
X222554Y10698D01*
X223554Y11031D01*
G54D12*
X219554Y18198D02*
X223554Y18198D01*
G54D12*
X233221Y11531D02*
X231621Y10698D01*
X229621Y10698D01*
X227621Y11531D01*
X227221Y13198D01*
X227221Y16031D01*
X228221Y17698D01*
X230221Y18198D01*
X232221Y17698D01*
X233221Y16531D01*
X233221Y14865D01*
X227221Y14865D01*
G54D12*
X236888Y18198D02*
X236888Y7365D01*
G54D12*
X236888Y13198D02*
X237888Y11031D01*
X239888Y10698D01*
X241888Y11031D01*
X242888Y12698D01*
X242888Y16031D01*
X241888Y17698D01*
X239888Y18198D01*
X237888Y17698D01*
X236888Y15698D01*
G54D12*
X246555Y18198D02*
X246555Y7365D01*
G54D12*
X246555Y13198D02*
X247555Y11031D01*
X249555Y10698D01*
X251555Y11031D01*
X252555Y12698D01*
X252555Y16031D01*
X251555Y17698D01*
X249555Y18198D01*
X247555Y17698D01*
X246555Y15698D01*
G54D12*
X262222Y11531D02*
X260622Y10698D01*
X258622Y10698D01*
X256622Y11531D01*
X256222Y13198D01*
X256222Y16031D01*
X257222Y17698D01*
X259222Y18198D01*
X261222Y17698D01*
X262222Y16531D01*
X262222Y14865D01*
X256222Y14865D01*
G54D12*
X265889Y10698D02*
X265889Y18198D01*
G54D12*
X265889Y16531D02*
X267889Y18198D01*
X269889Y18198D01*
G54D12*
X277423Y24031D02*
X282423Y10698D01*
X287423Y24031D01*
G54D12*
X294957Y19031D02*
X299957Y24031D01*
X299957Y10698D01*
G54D12*
X303624Y10698D02*
X303624Y10698D01*
G54D12*
X315291Y21531D02*
X315291Y13198D01*
X314291Y11531D01*
X312291Y10698D01*
X310291Y10698D01*
X308291Y11531D01*
X307291Y13198D01*
X307291Y21531D01*
X308291Y23198D01*
X310291Y24031D01*
X312291Y24031D01*
X314291Y23198D01*
X315291Y21531D01*
M02*
