; Drill file
; Format: 2.4 (00.0000)
M48
INCH
T01C0.0315
T02C0.0394
T03C0.0827
%
G05
G90
T01
X004260Y010020
X005570Y009610
X006960Y009200
X008360Y008790
X011770Y007720
X013030Y007320
X011040Y001530
X012110Y001240
X019840Y000850
X020100Y001820
X020660Y003670
X020920Y004630
T02
X001970Y002320
X002320Y003550
X003280Y003260
X004240Y002970
X005200Y002680
X006150Y002390
X007110Y002100
X008070Y001810
X009020Y001530
X012590Y002950
X013390Y005840
X010710Y007280
X009750Y007570
X008790Y007860
X007840Y008150
X006880Y008440
X005920Y008730
X004960Y009020
X004010Y009310
X003870Y001720
X017410Y001610
X018160Y004510
T03
X001990Y001110
X001270Y003600
X002240Y009960
X025400Y002840
M30
